<svg width="20" height="19" viewBox="0 0 20 19" fill="none" xmlns="http://www.w3.org/2000/svg">
<path d="M9.85551 18.6475C14.9488 18.6475 19.0777 14.5186 19.0777 9.42533C19.0777 4.33205 14.9488 0.203125 9.85551 0.203125C4.76222 0.203125 0.633301 4.33205 0.633301 9.42533C0.633301 14.5186 4.76222 18.6475 9.85551 18.6475Z" fill="#6DAE4F"/>
<path d="M9.8551 0.203201C12.301 0.203201 14.6467 1.17482 16.3762 2.90432C18.1057 4.63382 19.0773 6.97953 19.0773 9.42541C19.0773 11.8713 18.1057 14.217 16.3762 15.9465C14.6467 17.676 12.301 18.6476 9.8551 18.6476C7.40922 18.6476 5.06351 17.676 3.33401 15.9465C1.60451 14.217 0.632888 11.8713 0.632888 9.42541C0.632888 6.97953 1.60451 4.63382 3.33401 2.90432C5.06351 1.17482 7.40922 0.203201 9.8551 0.203201ZM9.8551 -1.11426C7.0598 -1.11426 4.379 -0.00383151 2.40243 1.97274C0.425856 3.94931 -0.68457 6.63012 -0.68457 9.42541C-0.68457 12.2207 0.425856 14.9015 2.40243 16.8781C4.379 18.8547 7.0598 19.9651 9.8551 19.9651C12.6504 19.9651 15.3312 18.8547 17.3078 16.8781C19.2843 14.9015 20.3948 12.2207 20.3948 9.42541C20.3948 6.63012 19.2843 3.94931 17.3078 1.97274C15.3312 -0.00383151 12.6504 -1.11426 9.8551 -1.11426V-1.11426Z" fill="white"/>
<path d="M15.3001 11.0381C15.2761 10.0029 15.1167 8.97535 14.8258 7.9816C14.0283 7.34065 13.4222 6.493 13.0736 5.53113C12.8628 4.83287 12.7179 4.58256 12.0987 4.56938C11.9726 4.58084 11.8502 4.6174 11.7385 4.67691C11.6268 4.73642 11.5282 4.81768 11.4484 4.91589C11.3686 5.01411 11.3092 5.1273 11.2738 5.24879C11.2385 5.37029 11.2277 5.49764 11.2423 5.62335C11.2502 5.93954 11.2766 6.25704 11.3214 6.57192C11.5019 7.43485 11.7561 8.28198 12.0855 9.10144L6.15692 4.59573C6.05803 4.4994 5.94005 4.42486 5.81059 4.37692C5.68113 4.32898 5.54306 4.3087 5.40527 4.31739C5.26749 4.32608 5.13306 4.36354 5.01065 4.42737C4.88823 4.49119 4.78055 4.57996 4.69455 4.68795C4.62917 4.79724 4.58647 4.91857 4.56899 5.04471C4.55151 5.17086 4.55961 5.29923 4.5928 5.42217C4.626 5.54512 4.68361 5.66012 4.7622 5.76032C4.8408 5.86053 4.93876 5.94388 5.05026 6.00541L8.01454 8.24509L8.79184 8.98287L4.08851 5.41255C3.99423 5.31747 3.88064 5.24374 3.75541 5.19635C3.63018 5.14895 3.49623 5.12899 3.36262 5.13782C3.22901 5.14666 3.09886 5.18407 2.98095 5.24753C2.86305 5.311 2.76015 5.39904 2.6792 5.5057C2.59825 5.61236 2.54114 5.73516 2.51174 5.86579C2.48234 5.99642 2.48133 6.13184 2.50877 6.2629C2.53621 6.39396 2.59147 6.51759 2.67082 6.62546C2.75016 6.73332 2.85173 6.82288 2.96868 6.88811L5.93296 9.12779L7.71153 10.4452L3.86455 7.56001C3.76566 7.46368 3.64768 7.38914 3.51821 7.3412C3.38875 7.29326 3.25068 7.27298 3.1129 7.28167C2.97512 7.29036 2.84069 7.32782 2.71827 7.39165C2.59586 7.45547 2.48817 7.54424 2.40217 7.65223C1.99376 8.17922 2.32312 8.71937 2.74471 9.04874L5.70899 11.2752L7.19772 12.3951L4.23344 10.1554C4.14212 10.056 4.03114 9.9766 3.90754 9.92231C3.78395 9.86801 3.65042 9.83997 3.51542 9.83997C3.38042 9.83997 3.24689 9.86801 3.1233 9.92231C2.9997 9.9766 2.88873 10.056 2.79741 10.1554C2.71654 10.2681 2.66031 10.3965 2.63237 10.5324C2.60442 10.6683 2.6054 10.8085 2.63522 10.9439C2.66505 11.0794 2.72306 11.2071 2.80548 11.3186C2.8879 11.4302 2.99288 11.5231 3.1136 11.5914L8.51518 15.5438C9.29775 16.1327 11.2423 16.6413 12.0987 15.8969" stroke="#165209" stroke-width="1.26476" stroke-linecap="round" stroke-linejoin="round"/>
<path fill-rule="evenodd" clip-rule="evenodd" d="M15.9328 11.9339L15.3795 11.4464C15.3075 10.4768 15.0806 9.52493 14.7076 8.62705C13.9363 7.72225 13.39 6.6478 13.1134 5.4915C12.9026 4.79325 12.7577 4.54293 12.1385 4.52976C12.0125 4.54122 11.89 4.57778 11.7783 4.63729C11.6667 4.6968 11.568 4.77805 11.4882 4.87627C11.4084 4.97448 11.3491 5.08767 11.3137 5.20917C11.2783 5.33067 11.2676 5.45802 11.2822 5.58372C11.2901 5.89991 11.3164 6.21742 11.3612 6.53229C11.5127 7.36361 11.7564 8.17648 12.0858 8.95642L11.8355 8.8115L6.15725 4.45071C6.05835 4.35438 5.94037 4.27984 5.81091 4.2319C5.68145 4.18396 5.54338 4.16368 5.4056 4.17237C5.26782 4.18106 5.13338 4.21852 5.01097 4.28235C4.88856 4.34617 4.78087 4.43494 4.69487 4.54293C4.61822 4.65558 4.56638 4.78324 4.54279 4.91743C4.5192 5.05163 4.52439 5.18931 4.55802 5.32135C4.59166 5.45338 4.65296 5.57677 4.73788 5.68333C4.82279 5.78988 4.92938 5.87718 5.05058 5.93944L7.94899 8.16594L8.79216 8.83785L4.08884 5.26753C3.99083 5.17045 3.87357 5.09496 3.74462 5.04593C3.61567 4.9969 3.47788 4.97541 3.34012 4.98286C3.20237 4.99031 3.0677 5.02652 2.94478 5.08916C2.82187 5.15181 2.71343 5.23949 2.62646 5.34658C2.55136 5.45905 2.50048 5.5859 2.47706 5.71909C2.45363 5.85228 2.45817 5.98888 2.49038 6.12022C2.5226 6.25156 2.58179 6.37476 2.66418 6.48199C2.74658 6.58922 2.85038 6.67814 2.969 6.74309L5.93328 8.98277L7.71185 10.3002L3.86487 7.42817C3.76789 7.32916 3.65091 7.25197 3.52175 7.20175C3.39258 7.15152 3.25419 7.12941 3.1158 7.13689C2.97741 7.14437 2.84221 7.18127 2.71921 7.24513C2.59621 7.30898 2.48823 7.39833 2.40249 7.50721C2.32536 7.61904 2.27279 7.74594 2.24825 7.87955C2.2237 8.01317 2.22775 8.15046 2.26011 8.2824C2.29247 8.41434 2.35242 8.53792 2.436 8.64501C2.51958 8.75211 2.6249 8.84028 2.74503 8.90372L5.70931 11.1302L7.19804 12.2501L4.23376 10.0236C4.14471 9.92041 4.03448 9.83766 3.91058 9.78094C3.78668 9.72422 3.65201 9.69486 3.51574 9.69486C3.37947 9.69486 3.24481 9.72422 3.1209 9.78094C2.997 9.83766 2.88678 9.92041 2.79773 10.0236C2.71708 10.1352 2.661 10.2626 2.63317 10.3975C2.60534 10.5323 2.60639 10.6716 2.63627 10.806C2.66614 10.9404 2.72415 11.067 2.80648 11.1774C2.88881 11.2878 2.99359 11.3795 3.11392 11.4464L8.5155 15.5437C8.90302 15.8353 9.34571 16.0452 9.81674 16.1607C10.2878 16.2762 10.7773 16.2949 11.2558 16.2156C11.9646 16.6267 12.5838 16.6267 13.1134 16.2156C13.9065 15.5977 13.6457 15.5424 14.2333 14.7269C14.8983 13.8595 15.4681 12.9231 15.9328 11.9339Z" fill="#DCF0CB"/>
<path d="M15.3001 11.0381C15.2761 10.0029 15.1167 8.97535 14.8258 7.9816C14.0283 7.34065 13.4222 6.493 13.0736 5.53113C12.8628 4.83287 12.7179 4.58256 12.0987 4.56938C11.9726 4.58084 11.8502 4.6174 11.7385 4.67691C11.6268 4.73642 11.5282 4.81768 11.4484 4.91589C11.3686 5.01411 11.3092 5.1273 11.2738 5.24879C11.2385 5.37029 11.2277 5.49764 11.2423 5.62335C11.2502 5.93954 11.2766 6.25705 11.3214 6.57192C11.5019 7.43485 11.7561 8.28198 12.0855 9.10144L6.15692 4.59573C6.05803 4.4994 5.94005 4.42486 5.81059 4.37692C5.68113 4.32898 5.54306 4.3087 5.40527 4.31739C5.26749 4.32608 5.13306 4.36354 5.01065 4.42737C4.88823 4.49119 4.78055 4.57996 4.69455 4.68795C4.62917 4.79724 4.58647 4.91857 4.56899 5.04471C4.55151 5.17086 4.55961 5.29923 4.5928 5.42217C4.626 5.54512 4.68361 5.66012 4.7622 5.76032C4.8408 5.86053 4.93876 5.94388 5.05026 6.00541L8.01454 8.24509L8.79184 8.98287L4.08851 5.41255C3.99423 5.31747 3.88064 5.24374 3.75541 5.19635C3.63018 5.14895 3.49623 5.12899 3.36262 5.13783C3.22901 5.14666 3.09886 5.18407 2.98095 5.24753C2.86305 5.311 2.76015 5.39904 2.6792 5.5057C2.59825 5.61236 2.54114 5.73516 2.51174 5.86579C2.48234 5.99642 2.48133 6.13184 2.50877 6.2629C2.53621 6.39396 2.59147 6.51759 2.67082 6.62546C2.75016 6.73332 2.85173 6.82288 2.96868 6.88811L5.93296 9.12779L7.71153 10.4452L3.86455 7.56001C3.76566 7.46368 3.64768 7.38914 3.51821 7.3412C3.38875 7.29326 3.25068 7.27298 3.1129 7.28167C2.97512 7.29036 2.84069 7.32782 2.71827 7.39165C2.59586 7.45547 2.48817 7.54424 2.40217 7.65223C1.99376 8.17922 2.32312 8.71938 2.74471 9.04874L5.70899 11.2752L7.19772 12.3951L4.23344 10.1554C4.14212 10.056 4.03114 9.9766 3.90754 9.92231C3.78395 9.86801 3.65042 9.83997 3.51542 9.83997C3.38042 9.83997 3.24689 9.86801 3.1233 9.92231C2.9997 9.9766 2.88873 10.056 2.79741 10.1554C2.71654 10.2681 2.66031 10.3965 2.63237 10.5324C2.60442 10.6683 2.6054 10.8085 2.63522 10.9439C2.66505 11.0794 2.72306 11.2071 2.80548 11.3186C2.8879 11.4302 2.99288 11.5231 3.1136 11.5914L8.51518 15.5438C9.29775 16.1327 11.1316 16.5214 12.0987 16.3606" stroke="#165209" stroke-width="0.421587" stroke-linecap="round" stroke-linejoin="round"/>
<path fill-rule="evenodd" clip-rule="evenodd" d="M18.7706 13.8888C18.5041 13.6036 18.298 13.2675 18.1645 12.9007C18.1645 12.6109 18.0855 12.3342 18.0328 12.0444C17.9916 11.5388 17.8289 11.0507 17.5585 10.6215C16.7949 9.71162 16.2496 8.63907 15.9644 7.48597C15.7536 6.78772 15.6087 6.5374 14.9895 6.52423C14.8634 6.53569 14.741 6.57225 14.6293 6.63176C14.5176 6.69127 14.419 6.77252 14.3392 6.87074C14.2594 6.96895 14.2 7.08214 14.1647 7.20364C14.1293 7.32514 14.1185 7.45249 14.1331 7.57819C14.1423 7.89438 14.1687 8.21057 14.2122 8.52676C14.4493 9.73882 14.6996 10.7401 14.726 10.806L9.07409 6.57692C8.97621 6.47867 8.85849 6.40242 8.7288 6.35328C8.59911 6.30415 8.46043 6.28324 8.32202 6.29197C8.18361 6.3007 8.04865 6.33886 7.92616 6.4039C7.80367 6.46894 7.69646 6.55937 7.61171 6.66915C7.5458 6.77764 7.50234 6.89825 7.48391 7.02385C7.46547 7.14944 7.47243 7.27746 7.50437 7.40031C7.53631 7.52317 7.59259 7.63836 7.66987 7.73907C7.74714 7.83978 7.84384 7.92395 7.95425 7.98661L10.9185 10.2263L11.8144 10.9641L7.07155 7.39375C6.97457 7.29475 6.85759 7.21756 6.72842 7.16733C6.59926 7.1171 6.46086 7.09499 6.32248 7.10247C6.18409 7.10995 6.04889 7.14685 5.92589 7.21071C5.80289 7.27457 5.69491 7.36392 5.60917 7.4728C5.53203 7.58462 5.47947 7.71152 5.45492 7.84513C5.43038 7.97875 5.43443 8.11604 5.46679 8.24798C5.49915 8.37992 5.5591 8.5035 5.64268 8.6106C5.72626 8.71769 5.83158 8.80586 5.95171 8.8693L8.91599 11.109L10.6946 12.4264L6.83441 9.54121C6.73579 9.44592 6.61818 9.3725 6.48926 9.32576C6.36034 9.27902 6.22301 9.26 6.08624 9.26995C5.94947 9.2799 5.81634 9.31858 5.69554 9.38349C5.57474 9.44839 5.46899 9.53805 5.3852 9.6466C4.97679 10.1736 5.29298 10.7137 5.72774 11.0431L8.69202 13.2564L10.1676 14.3763L7.1506 12.1366C6.96561 11.9759 6.72626 11.8919 6.48141 11.9017C6.23657 11.9114 6.00469 12.0143 5.83314 12.1893C5.75249 12.2973 5.69509 12.4208 5.66458 12.552C5.63407 12.6833 5.63109 12.8194 5.65585 12.9519C5.68061 13.0844 5.73257 13.2103 5.80843 13.3216C5.8843 13.433 5.98243 13.5274 6.09663 13.599L11.3665 17.5514C11.8065 17.8807 12.315 18.106 12.8552 18.2101L13.6193 18.3287C14.0211 18.3879 14.4098 18.517 14.7655 18.7107C15.0115 18.8308 15.2935 18.8543 15.556 18.7766C16.4825 18.4498 17.2931 17.859 17.8879 17.0771C18.4449 16.3071 18.7654 15.3914 18.8101 14.4422C18.8435 14.2573 18.83 14.067 18.7706 13.8888Z" stroke="#165209" stroke-width="1.26476" stroke-linecap="round" stroke-linejoin="round"/>
<path fill-rule="evenodd" clip-rule="evenodd" d="M18.8231 13.8232L18.2303 13.3752C18.1646 12.4046 17.9376 11.4517 17.5584 10.5559C16.7924 9.64752 16.2468 8.57439 15.9643 7.4203C15.7535 6.72205 15.6085 6.47173 14.9893 6.45856C14.8633 6.47002 14.7409 6.50658 14.6292 6.56609C14.5175 6.6256 14.4188 6.70685 14.339 6.80507C14.2592 6.90328 14.1999 7.01647 14.1645 7.13797C14.1291 7.25947 14.1184 7.38682 14.133 7.51253C14.1422 7.82872 14.1686 8.14491 14.212 8.4611C14.4492 9.68633 14.6995 10.6876 14.7259 10.7403L9.07395 6.51126C8.97506 6.41493 8.85708 6.34039 8.72762 6.29245C8.59816 6.24451 8.46008 6.22423 8.3223 6.23292C8.18452 6.2416 8.05009 6.27907 7.92768 6.34289C7.80526 6.40672 7.69758 6.49549 7.61157 6.60348C7.20316 7.14364 7.53253 7.67062 7.95411 7.99999L10.9184 10.2265L11.8143 10.9643L7.07142 7.32808C6.97253 7.23175 6.85455 7.15721 6.72508 7.10927C6.59562 7.06133 6.45755 7.04105 6.31977 7.04974C6.18199 7.05843 6.04756 7.09589 5.92514 7.15972C5.80273 7.22354 5.69504 7.31231 5.60904 7.4203C5.20063 7.94729 5.52999 8.48745 5.95158 8.81681L8.91586 11.0433L10.6944 12.3608L6.83427 9.47554C6.73654 9.37951 6.61966 9.30516 6.49126 9.25734C6.36286 9.20951 6.22582 9.18929 6.08908 9.19799C5.95233 9.2067 5.81896 9.24412 5.69766 9.30784C5.57636 9.37155 5.46984 9.46012 5.38507 9.56776C5.3058 9.67889 5.25145 9.80583 5.22573 9.93989C5.20001 10.074 5.20353 10.212 5.23605 10.3446C5.26857 10.4772 5.32932 10.6012 5.41416 10.7081C5.49899 10.8151 5.60591 10.9024 5.72761 10.9643L8.69189 13.1908L10.1674 14.3106L7.15046 12.0841C6.9684 11.9172 6.7277 11.829 6.48087 11.8389C6.23405 11.8487 6.00115 11.9558 5.83301 12.1368C5.74098 12.2451 5.67409 12.3724 5.63713 12.5095C5.60018 12.6467 5.59408 12.7904 5.61927 12.9302C5.64447 13.0701 5.70033 13.2026 5.78285 13.3182C5.86536 13.4339 5.97248 13.5299 6.0965 13.5992L11.3663 17.5516C12.1653 18.028 13.0716 18.2954 14.0012 18.3289C14.3386 18.535 14.6909 18.7156 15.0552 18.869C16.1122 18.6697 17.054 18.0764 17.6901 17.209C18.3845 16.2123 18.7778 15.037 18.8231 13.8232Z" fill="#DDF6D1"/>
<path fill-rule="evenodd" clip-rule="evenodd" d="M18.7706 13.8888C18.5041 13.6036 18.298 13.2675 18.1645 12.9007C18.1645 12.6109 18.0855 12.3342 18.0328 12.0444C17.9916 11.5388 17.8289 11.0507 17.5585 10.6215C16.7949 9.71162 16.2496 8.63907 15.9644 7.48597C15.7536 6.78772 15.6087 6.5374 14.9895 6.52423C14.8634 6.53569 14.741 6.57225 14.6293 6.63176C14.5176 6.69127 14.419 6.77252 14.3392 6.87074C14.2594 6.96895 14.2 7.08214 14.1647 7.20364C14.1293 7.32514 14.1185 7.45249 14.1331 7.57819C14.1423 7.89438 14.1687 8.21057 14.2122 8.52676C14.4493 9.73882 14.6996 10.7401 14.726 10.806L9.07409 6.57692C8.97621 6.47867 8.85849 6.40242 8.7288 6.35328C8.59911 6.30415 8.46043 6.28324 8.32202 6.29197C8.18361 6.3007 8.04865 6.33886 7.92616 6.4039C7.80367 6.46894 7.69646 6.55937 7.61171 6.66915C7.5458 6.77764 7.50234 6.89825 7.48391 7.02385C7.46547 7.14944 7.47243 7.27746 7.50437 7.40031C7.53631 7.52317 7.59259 7.63836 7.66987 7.73907C7.74714 7.83978 7.84384 7.92395 7.95425 7.98661L10.9185 10.2263L11.8144 10.9641L7.07155 7.39375C6.97457 7.29475 6.85759 7.21756 6.72842 7.16733C6.59926 7.1171 6.46086 7.09499 6.32248 7.10247C6.18409 7.10995 6.04889 7.14685 5.92589 7.21071C5.80289 7.27457 5.69491 7.36392 5.60917 7.4728C5.53203 7.58462 5.47947 7.71152 5.45492 7.84513C5.43038 7.97875 5.43443 8.11604 5.46679 8.24798C5.49915 8.37992 5.5591 8.5035 5.64268 8.6106C5.72626 8.71769 5.83158 8.80586 5.95171 8.8693L8.91599 11.109L10.6946 12.4264L6.83441 9.54121C6.73579 9.44592 6.61818 9.3725 6.48926 9.32576C6.36034 9.27902 6.22301 9.26 6.08624 9.26995C5.94947 9.2799 5.81634 9.31858 5.69554 9.38349C5.57474 9.44839 5.46899 9.53805 5.3852 9.6466C4.97679 10.1736 5.29298 10.7137 5.72774 11.0431L8.69202 13.2564L10.1676 14.3763L7.1506 12.1366C6.96561 11.9759 6.72626 11.8919 6.48141 11.9017C6.23657 11.9114 6.00469 12.0143 5.83314 12.1893C5.75249 12.2973 5.69509 12.4208 5.66458 12.552C5.63407 12.6833 5.63109 12.8194 5.65585 12.9519C5.68061 13.0844 5.73257 13.2103 5.80843 13.3216C5.8843 13.433 5.98243 13.5274 6.09663 13.599L11.3665 17.5514C11.8065 17.8807 12.315 18.106 12.8552 18.2101L13.6193 18.3287C14.0211 18.3879 14.4098 18.517 14.7655 18.7107C15.0115 18.8308 15.2935 18.8543 15.556 18.7766C16.4825 18.4498 17.2931 17.859 17.8879 17.0771C18.4449 16.3071 18.7654 15.3914 18.8101 14.4422C18.8435 14.2573 18.83 14.067 18.7706 13.8888Z" stroke="#165209" stroke-width="0.421587" stroke-linecap="round" stroke-linejoin="round"/>
<path d="M9.24635 1.03691L8.39132 3.09214M10.9472 2.5981L9.98545 3.81016L10.9472 2.5981ZM6.55347 1.02637L6.6391 2.5981L6.55347 1.02637Z" stroke="#165209" stroke-width="0.843173" stroke-linecap="round" stroke-linejoin="round"/>
</svg>
