<svg width="22" height="22" viewBox="0 0 22 22" fill="none" xmlns="http://www.w3.org/2000/svg">
<path d="M20.0814 11.4253C20.0814 6.33205 15.9525 2.20313 10.8592 2.20313C5.76589 2.20313 1.63696 6.33205 1.63696 11.4253C1.63696 16.5186 5.76589 20.6475 10.8592 20.6475C15.9525 20.6475 20.0814 16.5186 20.0814 11.4253Z" fill="#DEB8DC"/>
<path d="M17.4463 11.4252C17.4463 7.78712 14.4971 4.83789 10.859 4.83789C7.22096 4.83789 4.27173 7.78712 4.27173 11.4252C4.27173 15.0632 7.22096 18.0125 10.859 18.0125C14.4971 18.0125 17.4463 15.0632 17.4463 11.4252Z" fill="#F9F0F8" stroke="#523951" stroke-width="0.843173"/>
<mask id="mask0_3_4642" style="mask-type:alpha" maskUnits="userSpaceOnUse" x="3" y="4" width="16" height="15">
<path d="M10.8581 18.6712C8.93696 18.6691 7.09512 17.9051 5.73668 16.5466C4.37824 15.1882 3.61415 13.3463 3.61206 11.4252C3.61206 7.42937 6.86355 4.1792 10.8581 4.1792C14.8526 4.1792 18.1041 7.42937 18.1041 11.4252C18.1041 15.4211 14.8526 18.6712 10.8581 18.6712Z" fill="white"/>
</mask>
<g mask="url(#mask0_3_4642)">
<path fill-rule="evenodd" clip-rule="evenodd" d="M8.75308 9.25098C8.64062 9.25098 8.52926 9.27313 8.42537 9.31616C8.32147 9.3592 8.22707 9.42228 8.14755 9.5018C8.06803 9.58131 8.00495 9.67572 7.96191 9.77961C7.91888 9.88351 7.89673 9.99487 7.89673 10.1073C7.89673 10.2198 7.91888 10.3311 7.96191 10.435C8.00495 10.5389 8.06803 10.6333 8.14755 10.7129C8.22707 10.7924 8.32147 10.8555 8.42537 10.8985C8.52926 10.9415 8.64062 10.9637 8.75308 10.9637C8.98019 10.9637 9.19801 10.8735 9.35861 10.7129C9.5192 10.5523 9.60942 10.3344 9.60942 10.1073C9.60942 9.88021 9.5192 9.66239 9.35861 9.5018C9.19801 9.3412 8.98019 9.25098 8.75308 9.25098ZM13.0111 10.0625C12.8986 10.0625 12.7873 10.0847 12.6834 10.1277C12.5795 10.1708 12.4851 10.2338 12.4056 10.3134C12.3261 10.3929 12.263 10.4873 12.2199 10.5912C12.1769 10.6951 12.1548 10.8064 12.1548 10.9189C12.1548 11.0313 12.1769 11.1427 12.2199 11.2466C12.263 11.3505 12.3261 11.4449 12.4056 11.5244C12.4851 11.6039 12.5795 11.667 12.6834 11.71C12.7873 11.7531 12.8986 11.7752 13.0111 11.7752C13.2382 11.7752 13.456 11.685 13.6166 11.5244C13.7772 11.3638 13.8675 11.146 13.8675 10.9189C13.8675 10.6918 13.7772 10.4739 13.6166 10.3134C13.456 10.1528 13.2382 10.0625 13.0111 10.0625Z" fill="#523951" stroke="#523951" stroke-width="0.0843173"/>
<path d="M12.492 8.54518C12.795 8.43715 13.131 8.43715 13.434 8.54518C13.7476 8.61764 14.0203 8.7955 14.2021 9.04581M7.89673 7.48199C8.12597 7.26593 8.43425 7.13813 8.75835 7.12101C9.08244 7.07621 9.41049 7.14736 9.68057 7.31862L7.89673 7.48199Z" stroke="#523951" stroke-width="0.758856" stroke-linecap="round" stroke-linejoin="round"/>
<path fill-rule="evenodd" clip-rule="evenodd" d="M11.0036 14.0206C11.099 14.0032 11.197 14.0058 11.2914 14.0282C11.3857 14.0507 11.4744 14.0925 11.5517 14.1511C11.7098 14.2696 11.8152 14.4488 11.8442 14.6491C11.8682 14.8417 11.8207 15.0365 11.7107 15.1966C11.6007 15.3566 11.4359 15.4707 11.2474 15.5173L9.4095 15.84C9.56759 15.8137 9.72964 15.8545 9.85743 15.9547C9.98798 16.0558 10.0732 16.2045 10.0946 16.3683C10.1212 16.5267 10.0881 16.6893 10.0017 16.8246C9.91527 16.9599 9.78171 17.0584 9.62688 17.1008C9.79815 17.1931 9.91672 17.3643 9.94834 17.562C9.97198 17.7103 9.94524 17.8622 9.87241 17.9936C9.79957 18.1249 9.68484 18.2281 9.54651 18.2866C9.64282 18.4145 9.68792 18.5737 9.67299 18.7332C9.65975 18.8847 9.5961 19.0274 9.4922 19.1384C9.38831 19.2495 9.25018 19.3225 9.09989 19.3458L8.88646 19.3932C8.33313 19.5184 7.77453 19.6146 7.21198 19.6804C6.5717 19.6896 5.93202 19.6376 5.30166 19.525C5.0858 19.4752 4.88663 19.37 4.72377 19.2199C4.5609 19.0697 4.43996 18.8797 4.37285 18.6686C3.95522 17.7662 3.7273 16.0587 4.23847 15.5647C4.75096 15.072 4.66269 15.1958 4.90774 14.6095C5.15147 14.0246 5.40837 13.3527 5.60336 12.7783C5.79834 12.2065 5.87476 11.9483 6.23706 11.8086C6.41452 11.7555 6.60549 11.7715 6.77165 11.8534C6.93781 11.9352 7.06687 12.0769 7.13293 12.25C7.18563 12.6478 7.1685 13.0536 7.07759 13.4436C6.98537 14.2393 6.98274 14.4224 7.07759 14.6938L11.0036 14.0219V14.0206Z" stroke="#523951" stroke-width="0.971336" stroke-linecap="round" stroke-linejoin="round"/>
<path d="M6.61648 14.7848L11.0036 14.0206C11.099 14.0032 11.197 14.0058 11.2914 14.0282C11.3857 14.0507 11.4744 14.0925 11.5517 14.1511C11.7098 14.2696 11.8152 14.4488 11.8442 14.6491C11.8682 14.8417 11.8207 15.0365 11.7107 15.1966C11.6007 15.3566 11.4359 15.4707 11.2474 15.5173L9.4095 15.84C9.56759 15.8137 9.72964 15.8545 9.85743 15.9547C9.98798 16.0558 10.0732 16.2045 10.0946 16.3683C10.1212 16.5267 10.0881 16.6893 10.0017 16.8246C9.91527 16.9599 9.78171 17.0584 9.62688 17.1008C9.79815 17.1931 9.91672 17.3643 9.94834 17.562C9.97198 17.7103 9.94524 17.8622 9.87241 17.9936C9.79957 18.1249 9.68484 18.2281 9.54651 18.2866C9.64282 18.4145 9.68792 18.5737 9.67299 18.7332C9.65975 18.8847 9.5961 19.0274 9.4922 19.1384C9.38831 19.2495 9.25018 19.3225 9.09989 19.3458L8.88646 19.3932C8.33313 19.5184 7.77453 19.6146 7.21198 19.6804C6.5717 19.6896 5.93202 19.6376 5.30166 19.525C5.0858 19.4752 4.88663 19.37 4.72377 19.2199C4.5609 19.0697 4.43996 18.8797 4.37285 18.6686C3.95522 17.7662 3.7273 16.0587 4.23847 15.5647C4.75096 15.072 4.66269 15.1958 4.90774 14.6095C5.15147 14.0246 5.40837 13.3527 5.60336 12.7783C5.79834 12.2065 5.87476 11.9483 6.23706 11.8086C6.41452 11.7555 6.60549 11.7715 6.77165 11.8534C6.93781 11.9352 7.06687 12.0769 7.13293 12.25C7.18563 12.6478 7.1685 13.0536 7.07759 13.4436C6.98537 14.2393 6.98274 14.4224 7.07759 14.6938" fill="#F9F0F8"/>
<path fill-rule="evenodd" clip-rule="evenodd" d="M11.0036 14.0206C11.099 14.0032 11.197 14.0058 11.2914 14.0282C11.3857 14.0507 11.4744 14.0925 11.5517 14.1511C11.7098 14.2696 11.8152 14.4488 11.8442 14.6491C11.8682 14.8417 11.8207 15.0365 11.7107 15.1966C11.6007 15.3566 11.4359 15.4707 11.2474 15.5173L9.4095 15.84C9.56759 15.8137 9.72964 15.8545 9.85743 15.9547C9.98798 16.0558 10.0732 16.2045 10.0946 16.3683C10.1212 16.5267 10.0881 16.6893 10.0017 16.8246C9.91527 16.9599 9.78171 17.0584 9.62688 17.1008C9.79815 17.1931 9.91672 17.3643 9.94834 17.562C9.97198 17.7103 9.94524 17.8622 9.87241 17.9936C9.79957 18.1249 9.68484 18.2281 9.54651 18.2866C9.64282 18.4145 9.68792 18.5737 9.67299 18.7332C9.65975 18.8847 9.5961 19.0274 9.4922 19.1384C9.38831 19.2495 9.25018 19.3225 9.09989 19.3458L8.88646 19.3932C8.33313 19.5184 7.77453 19.6146 7.21198 19.6804C6.5717 19.6896 5.93202 19.6376 5.30166 19.525C5.0858 19.4752 4.88663 19.37 4.72377 19.2199C4.5609 19.0697 4.43996 18.8797 4.37285 18.6686C3.95522 17.7662 3.7273 16.0587 4.23847 15.5647C4.75096 15.072 4.66269 15.1958 4.90774 14.6095C5.15147 14.0246 5.40837 13.3527 5.60336 12.7783C5.79834 12.2065 5.87476 11.9483 6.23706 11.8086C6.41452 11.7555 6.60549 11.7715 6.77165 11.8534C6.93781 11.9352 7.06687 12.0769 7.13293 12.25C7.18563 12.6478 7.1685 13.0536 7.07759 13.4436C6.98537 14.2393 6.98274 14.4224 7.07759 14.6938L11.0036 14.0219V14.0206Z" stroke="#523951" stroke-width="0.421587" stroke-linecap="round" stroke-linejoin="round"/>
</g>
</svg>
