<svg width="23" height="22" viewBox="0 0 23 22" fill="none" xmlns="http://www.w3.org/2000/svg">
<path d="M11.5235 20.648C16.6168 20.648 20.7457 16.5191 20.7457 11.4258C20.7457 6.33254 16.6168 2.20361 11.5235 2.20361C6.43019 2.20361 2.30127 6.33254 2.30127 11.4258C2.30127 16.5191 6.43019 20.648 11.5235 20.648Z" fill="#DF704D"/>
<path fill-rule="evenodd" clip-rule="evenodd" d="M11.1411 7.47349C10.8205 7.15203 10.4396 6.89698 10.0202 6.72296C9.60085 6.54893 9.15128 6.45936 8.69724 6.45936C8.2432 6.45936 7.79363 6.54893 7.37427 6.72296C6.9549 6.89698 6.57399 7.15203 6.25335 7.47349C5.9287 7.79774 5.67115 8.18281 5.49542 8.60667C5.3197 9.03053 5.22925 9.48488 5.22925 9.94372C5.22925 10.4026 5.3197 10.8569 5.49542 11.2808C5.67115 11.7046 5.9287 12.0897 6.25335 12.414L11.5232 17.6838L16.793 12.414C17.1177 12.0897 17.3752 11.7046 17.551 11.2808C17.7267 10.8569 17.8171 10.4026 17.8171 9.94372C17.8171 9.48488 17.7267 9.03053 17.551 8.60667C17.3752 8.18281 17.1177 7.79774 16.793 7.47349C16.4745 7.15099 16.0949 6.89518 15.6765 6.72101C15.258 6.54683 14.809 6.45778 14.3557 6.45905C13.9022 6.4563 13.4528 6.54467 13.0341 6.71894C12.6154 6.8932 12.236 7.14979 11.9184 7.47349L11.5232 7.86873L11.1411 7.47349Z" fill="#FFF3F0" stroke="#77280C" stroke-width="0.843173"/>
<path fill-rule="evenodd" clip-rule="evenodd" d="M11.1411 7.47342C10.8222 7.14877 10.4419 6.8909 10.0223 6.71487C9.60267 6.53884 9.1522 6.44818 8.69717 6.44818C8.24213 6.44818 7.79166 6.53884 7.37205 6.71487C6.95245 6.8909 6.57212 7.14877 6.25328 7.47342C5.61754 8.12544 5.26172 9.00006 5.26172 9.91072C5.26172 10.8214 5.61754 11.696 6.25328 12.348L11.5231 17.6178L16.7929 12.348C17.4287 11.696 17.7845 10.8214 17.7845 9.91072C17.7845 9.00006 17.4287 8.12544 16.7929 7.47342C16.4751 7.14913 16.0959 6.89128 15.6775 6.71486C15.2591 6.53845 14.8097 6.44699 14.3557 6.4458C13.9013 6.44551 13.4516 6.5363 13.0329 6.7128C12.6143 6.88931 12.2353 7.14794 11.9184 7.47342L11.5231 7.80278L11.1411 7.47342Z" stroke="#77280C" stroke-width="0.843173" stroke-linecap="round" stroke-linejoin="round"/>
</svg>
