<svg width="22" height="22" viewBox="0 0 22 22" fill="none" xmlns="http://www.w3.org/2000/svg">
<g clip-path="url(#clip0_3_4633)">
<path d="M11.1907 20.648C16.284 20.648 20.4129 16.5191 20.4129 11.4258C20.4129 6.33254 16.284 2.20361 11.1907 2.20361C6.09743 2.20361 1.96851 6.33254 1.96851 11.4258C1.96851 16.5191 6.09743 20.648 11.1907 20.648Z" fill="#F5BB5C"/>
<path fill-rule="evenodd" clip-rule="evenodd" d="M12.2708 18.5398H10.1628C9.97416 18.5398 9.79321 18.4649 9.65979 18.3314C9.52637 18.198 9.45142 18.0171 9.45142 17.8284V16.0762H12.9822V17.8284C12.9822 18.0171 12.9073 18.198 12.7738 18.3314C12.6404 18.4649 12.4595 18.5398 12.2708 18.5398Z" fill="#FFE1B2"/>
<path fill-rule="evenodd" clip-rule="evenodd" d="M9.46486 16.4188V16.0763C9.46486 15.6283 9.3924 15.1843 9.25407 14.7588C9.06945 14.3859 8.8345 14.0402 8.55581 13.7312C8.07048 13.3323 7.67855 12.8318 7.40767 12.265C7.13679 11.6982 6.99354 11.0789 6.98804 10.4507C6.98804 9.32911 7.4336 8.25344 8.22669 7.46034C9.01979 6.66724 10.0955 6.22168 11.2171 6.22168C12.3387 6.22168 13.4144 6.66724 14.2075 7.46034C15.0006 8.25344 15.4461 9.32911 15.4461 10.4507C15.4348 11.0926 15.2841 11.7244 15.0042 12.3023C14.7244 12.8801 14.3223 13.3902 13.8256 13.7971C13.9179 13.7312 13.7202 13.8761 13.5885 14.0606C13.4588 14.2516 13.3568 14.4601 13.2855 14.6798C13.1513 15.1059 13.0846 15.5504 13.0879 15.9972V16.3398" fill="#FCF0DE"/>
<path d="M10.479 7.18311C9.86452 7.28663 9.30038 7.5872 8.8717 8.03945C8.42222 8.476 8.11073 9.03486 7.97583 9.64675" stroke="white" stroke-width="1.68635" stroke-linecap="round" stroke-linejoin="round"/>
<path fill-rule="evenodd" clip-rule="evenodd" d="M12.2708 18.5398H10.1628C9.97416 18.5398 9.79321 18.4649 9.65979 18.3314C9.52637 18.198 9.45142 18.0171 9.45142 17.8284V16.0762H12.9822V17.8284C12.9822 18.0171 12.9073 18.198 12.7738 18.3314C12.6404 18.4649 12.4595 18.5398 12.2708 18.5398V18.5398Z" stroke="#5D3B01" stroke-width="0.843173" stroke-linecap="round" stroke-linejoin="round"/>
<path d="M11.191 2.8623V4.5223M9.45198 16.419V16.0764C9.45547 15.6296 9.38878 15.1851 9.25437 14.759C9.16855 14.5381 9.05333 14.3298 8.91183 14.1397C8.771 13.9333 8.6075 13.7433 8.42437 13.5732C8.24861 13.4151 8.08562 13.2433 7.93691 13.0594C7.32689 12.3165 6.99185 11.3858 6.98834 10.4245C6.98834 9.3029 7.43389 8.22723 8.22699 7.43413C9.02009 6.64103 10.0958 6.19547 11.2174 6.19547C12.339 6.19547 13.4147 6.64103 14.2078 7.43413C15.0009 8.22723 15.4464 9.3029 15.4464 10.4245C15.4308 11.3859 15.092 12.314 14.4847 13.0594C14.2607 13.3361 14.0104 13.5864 13.7337 13.8104C13.6393 13.8961 13.5513 13.9886 13.4702 14.0871C13.3445 14.2785 13.2469 14.4871 13.1804 14.7063C13.0462 15.1324 12.9795 15.5769 12.9828 16.0237V16.3663L9.45198 16.419ZM6.71167 4.35894L7.51532 5.40105L6.71167 4.35894ZM15.6901 4.35367L14.8931 5.40105L15.6901 4.35367Z" stroke="#5D3B01" stroke-width="0.843173" stroke-linecap="round" stroke-linejoin="round"/>
</g>
<defs>
<clipPath id="clip0_3_4633">
<rect width="21.0793" height="21.0793" fill="white" transform="translate(0.651367 0.885742)"/>
</clipPath>
</defs>
</svg>
