<svg width="32" height="33" viewBox="0 0 32 33" fill="none" xmlns="http://www.w3.org/2000/svg">
<path d="M3.63636 0.200195C2.67406 0.20705 1.75311 0.592367 1.07264 1.27284C0.392171 1.95331 0.00685483 2.87425 0 3.83656V28.5638C0 30.5522 1.648 32.2002 3.63636 32.2002H28.3636C30.352 32.2002 32 30.5522 32 28.5638V3.83656C32 1.8482 30.352 0.200195 28.3636 0.200195H3.63636ZM3.63636 3.10929H28.3636C28.7782 3.10929 29.0909 3.42201 29.0909 3.83656V28.5638C29.0929 28.6599 29.0754 28.7553 29.0396 28.8445C29.0037 28.9336 28.9502 29.0146 28.8823 29.0825C28.8144 29.1504 28.7334 29.2039 28.6443 29.2398C28.5551 29.2756 28.4597 29.2931 28.3636 29.2911H3.63636C3.54026 29.2933 3.44471 29.276 3.35548 29.2402C3.26626 29.2044 3.18521 29.1509 3.11723 29.083C3.04926 29.015 2.99577 28.9339 2.96 28.8447C2.92422 28.7555 2.9069 28.6599 2.90909 28.5638V3.83656C2.90909 3.42201 3.22182 3.10929 3.63636 3.10929ZM7.90982 5.60965C7.57649 5.60161 7.24492 5.66032 6.93461 5.78232C6.62431 5.90433 6.34154 6.08716 6.10294 6.32007C5.86435 6.55298 5.67474 6.83125 5.54529 7.13853C5.41584 7.4458 5.34915 7.77586 5.34915 8.10929C5.34915 8.44271 5.41584 8.77277 5.54529 9.08005C5.67474 9.38732 5.86435 9.66559 6.10294 9.8985C6.34154 10.1314 6.62431 10.3142 6.93461 10.4363C7.24492 10.5583 7.57649 10.617 7.90982 10.6089C8.56232 10.5932 9.18281 10.3229 9.63873 9.85586C10.0947 9.3888 10.3499 8.76198 10.3499 8.10929C10.3499 7.45659 10.0947 6.82977 9.63873 6.36271C9.18281 5.89566 8.56232 5.62539 7.90982 5.60965ZM21.0444 12.2453C18.96 12.2453 17.5738 13.3871 17.0007 14.4722H16.9091V12.5638H12.8175V26.382H17.0909V19.5631C17.0909 17.7624 17.4487 16.0184 19.6815 16.0184C21.8807 16.0184 21.9098 18.0518 21.9098 19.6547V26.382H26.1818V18.7907C26.1818 15.0758 25.3905 12.2453 21.0444 12.2453ZM5.81818 12.5638V26.382H10.1367V12.5638H5.81818Z" fill="#255AE1"/>
</svg>
