<svg width="23" height="19" viewBox="0 0 23 19" fill="none" xmlns="http://www.w3.org/2000/svg">
<path d="M10.2092 18.6479C12.6551 18.6479 15.0009 17.6762 16.7304 15.9467C18.4599 14.2172 19.4316 11.8714 19.4316 9.4255C19.4316 6.97958 18.4599 4.63383 16.7304 2.9043C15.0009 1.17477 12.6551 0.203125 10.2092 0.203125C7.76327 0.203125 5.41752 1.17477 3.68799 2.9043C1.95846 4.63383 0.986816 6.97958 0.986816 9.4255C0.986816 11.8714 1.95846 14.2172 3.68799 15.9467C5.41752 17.6762 7.76327 18.6479 10.2092 18.6479Z" fill="#D8D8D8"/>
<path d="M10.2092 18.6479C12.6551 18.6479 15.0009 17.6762 16.7304 15.9467C18.4599 14.2172 19.4316 11.8714 19.4316 9.4255C19.4316 6.97958 18.4599 4.63383 16.7304 2.9043C15.0009 1.17477 12.6551 0.203125 10.2092 0.203125C7.76327 0.203125 5.41752 1.17477 3.68799 2.9043C1.95846 4.63383 0.986816 6.97958 0.986816 9.4255C0.986816 11.8714 1.95846 14.2172 3.68799 15.9467C5.41752 17.6762 7.76327 18.6479 10.2092 18.6479Z" fill="#BBA9D1"/>
<path d="M8.29266 12.8736H8.11744C8.08553 12.878 8.05316 12.878 8.02126 12.8736C7.72351 12.7629 6.20709 12.1845 5.18999 11.9C5.12762 11.8823 5.07185 11.8466 5.02967 11.7974C4.98749 11.7482 4.96076 11.6876 4.95284 11.6233C4.91234 11.3929 4.96288 11.1558 5.09381 10.9619C5.14421 10.8931 5.21033 10.8374 5.28665 10.7993C5.36296 10.7613 5.44727 10.7421 5.53253 10.7432C5.61949 10.7432 5.70776 10.7564 5.79076 10.7867C5.99234 10.8657 6.18074 10.9764 6.34674 11.1161L6.42184 11.1688L6.89086 11.4981C7.06608 11.6193 7.22023 11.7247 7.32826 11.8077L8.42441 12.2465C8.57328 12.3123 9.19118 12.593 9.15693 12.7471C9.12136 12.8999 8.45866 12.8868 8.31111 12.8907L8.29266 12.8736Z" fill="#FEF2FF"/>
<path d="M20.054 17.4226C18.4826 17.3929 16.9154 17.248 15.3651 16.9892H15.2769C14.1048 16.8378 12.9436 16.6125 11.8 16.3146C10.7882 16.03 9.78954 15.6585 8.82251 15.3028L8.39301 15.1473C7.60916 14.8626 6.82914 14.5675 6.05316 14.262L5.79889 14.1618C5.39215 14.0127 4.99524 13.838 4.61052 13.6388C4.07957 13.349 3.91752 12.9774 4.1494 12.5374V12.5018C4.22292 12.3658 4.33481 12.2545 4.47116 12.1816C4.6075 12.1088 4.76226 12.0776 4.91618 12.0921H4.97546C5.05319 12.0868 5.12961 12.0868 5.20734 12.0921C6.04921 12.1777 8.48524 13.0433 8.96612 13.2159L10.5379 13.2686H10.5748L14.1306 13.3793C13.854 13.1461 13.1557 12.7311 11.4535 12.3213C11.1294 12.2423 10.8343 12.1566 10.7645 11.9366C10.7129 11.7674 10.715 11.5864 10.7704 11.4185C10.8258 11.2505 10.9319 11.1038 11.0741 10.9986C11.2981 10.8747 11.5589 10.8181 11.8185 10.8378C12.2906 10.838 12.7595 10.9168 13.2058 11.071C13.576 11.1896 13.9594 11.2687 14.348 11.3082C14.9831 11.3951 15.6115 11.5256 16.2254 11.7034C18.2083 12.2001 18.5916 13.1289 18.842 13.6915C18.7629 13.4623 18.842 13.6309 18.8789 13.5439L18.9342 13.4702H19.0686C19.1256 13.4745 19.1828 13.4745 19.2398 13.4702C19.5824 13.4702 20.228 13.4399 20.2385 13.4399C20.4005 13.4399 21.1634 13.2633 21.1634 13.4056C21.2331 14.759 20.9276 16.1053 20.2807 17.2961C20.2607 17.3301 20.2332 17.359 20.2003 17.3807C20.1674 17.4024 20.13 17.4163 20.0909 17.4213H20.054V17.4226Z" fill="#EAE2F3"/>
<path d="M17.0657 12.0474C17.0841 12.058 17.105 12.0636 17.1262 12.0636C17.1475 12.0636 17.1684 12.058 17.1868 12.0474H17.0657Z" fill="#D67676"/>
<path fill-rule="evenodd" clip-rule="evenodd" d="M7.76072 3.59439C7.4097 3.23404 6.92991 3.02785 6.42689 3.02118C5.92387 3.01451 5.43879 3.2079 5.07833 3.55882L5.04803 3.59439C4.6879 3.96351 4.48633 4.45877 4.48633 4.97446C4.48633 5.49015 4.6879 5.98541 5.04803 6.35452L7.96888 9.31754L10.8963 6.35057C11.2562 5.98212 11.4577 5.48752 11.4577 4.97248C11.4577 4.45745 11.2562 3.96284 10.8963 3.59439C10.721 3.41257 10.5109 3.26785 10.2786 3.16884C10.0462 3.06984 9.79631 3.01856 9.54373 3.01807C9.29116 3.01758 9.04106 3.06788 8.80831 3.16598C8.57557 3.26408 8.36492 3.40798 8.1889 3.58912L7.97415 3.80914L7.7594 3.59439H7.76072Z" fill="#ECAA96"/>
<path d="M21.9646 13.7048C22.1175 13.8102 22.1241 14.8945 21.7934 15.8483C21.464 16.8022 20.3705 17.9207 20.1939 18.0722C20.0187 18.2238 13.8002 17.3845 12.3418 17.1553C10.8833 16.926 4.06796 13.7456 3.79525 13.6007C3.52121 13.4558 3.49618 12.4176 4.27876 12.2029C5.06003 11.9868 8.03359 13.2648 9.29046 13.3662C10.5473 13.469 12.6329 13.6007 14.1204 13.6007C15.6078 13.6007 12.4024 12.7009 11.8859 12.5204C11.3681 12.3359 10.5223 12.1067 10.4591 11.6746C10.3971 11.2424 11.0348 10.8011 11.459 10.6891C11.8833 10.5771 12.4814 10.8024 14.1204 11.1568C15.7593 11.5112 16.0281 11.3083 17.3456 11.8168C18.663 12.3254 19.2849 13.0922 19.4311 13.3662C19.576 13.6416 21.8118 13.6007 21.9646 13.7048V13.7048Z" stroke="#493D57" stroke-width="0.843173"/>
<path d="M5.03536 12.1818C4.73629 11.3729 5.18292 10.8591 5.71518 10.7537C6.24612 10.6496 7.26717 11.303 7.9773 11.9618C8.54908 12.4901 9.01415 12.7813 10.4792 13.4374" stroke="#493D57" stroke-width="0.843173"/>
<path d="M7.87013 3.32562C7.47814 2.94622 6.95288 2.73586 6.40736 2.7398C5.86185 2.74374 5.33968 2.96167 4.95322 3.3467C4.56656 3.73204 4.34639 4.25363 4.33999 4.79948C4.33358 5.34533 4.54145 5.87193 4.91896 6.26624L8.10068 9.42557L11.2837 6.26229C11.5718 5.97046 11.7673 5.60005 11.8456 5.19753C11.924 4.79501 11.8817 4.37833 11.724 3.99976C11.5664 3.62119 11.3005 3.29761 10.9597 3.06963C10.6188 2.84164 10.2182 2.7194 9.80814 2.71826C9.25743 2.7209 8.73044 2.94223 8.3431 3.33484L8.10068 3.56277L7.87013 3.32562V3.32562Z" stroke="#77280C" stroke-width="0.843173" stroke-linecap="round" stroke-linejoin="round"/>
</svg>
