<svg width="12" height="13" viewBox="0 0 12 13" fill="none" xmlns="http://www.w3.org/2000/svg">
<path d="M11.25 6.50024C11.2512 6.65405 11.2044 6.80442 11.1162 6.93043C11.028 7.05644 10.9027 7.15184 10.7578 7.20337L7.78406 8.28477L6.70312 11.2581C6.64984 11.4016 6.55392 11.5254 6.42823 11.6128C6.30253 11.7002 6.1531 11.7471 6 11.7471C5.8469 11.7471 5.69746 11.7002 5.57177 11.6128C5.44608 11.5254 5.35015 11.4016 5.29687 11.2581L4.21547 8.28149L1.24218 7.20337C1.09865 7.15009 0.974862 7.05416 0.887446 6.92847C0.800029 6.80278 0.753174 6.65334 0.753174 6.50024C0.753174 6.34714 0.800029 6.19771 0.887446 6.07201C0.974862 5.94632 1.09865 5.85039 1.24218 5.79712L4.21875 4.71571L5.29687 1.74243C5.35015 1.5989 5.44608 1.47511 5.57177 1.38769C5.69746 1.30027 5.8469 1.25342 6 1.25342C6.1531 1.25342 6.30253 1.30027 6.42823 1.38769C6.55392 1.47511 6.64984 1.5989 6.70312 1.74243L7.78453 4.71899L10.7578 5.79712C10.9027 5.84864 11.028 5.94404 11.1162 6.07006C11.2044 6.19607 11.2512 6.34643 11.25 6.50024Z" fill="#4B4B4B"/>
</svg>
