<svg width="22" height="22" viewBox="0 0 22 22" fill="none" xmlns="http://www.w3.org/2000/svg">
<path d="M11.1871 20.648C16.2803 20.648 20.4093 16.5191 20.4093 11.4258C20.4093 6.33254 16.2803 2.20361 11.1871 2.20361C6.09377 2.20361 1.96484 6.33254 1.96484 11.4258C1.96484 16.5191 6.09377 20.648 11.1871 20.648Z" fill="#1485BD"/>
<path fill-rule="evenodd" clip-rule="evenodd" d="M16.3643 10.4372H15.6397C15.5738 10.4372 15.4421 10.1869 15.1127 9.8312C14.6253 9.30422 14.0851 8.63232 13.703 8.26343C12.755 7.44069 11.9802 6.4375 11.4238 5.31232C11.1076 4.64042 11.0813 4.3374 10.4357 4.3374C10.1808 4.37032 9.94782 4.49882 9.78396 4.69691C9.62011 4.89501 9.53757 5.14793 9.55305 5.40454C9.55305 5.58899 9.64527 6.23454 9.68479 6.45851C9.96697 7.48858 10.4117 8.46701 11.0022 9.35692H11.7137H6.07495C5.91525 9.35456 5.75681 9.38561 5.6098 9.44808C5.4628 9.51055 5.33047 9.60305 5.22131 9.71965C5.11215 9.83625 5.02857 9.97439 4.97592 10.1252C4.92327 10.276 4.90272 10.4361 4.91559 10.5953C4.9359 10.904 5.07473 11.1929 5.30307 11.4016C5.53141 11.6103 5.83158 11.7226 6.14083 11.7152H6.35162C6.21666 11.7186 6.08369 11.7486 5.96032 11.8034C5.83695 11.8582 5.72559 11.9368 5.6326 12.0347C5.53962 12.1326 5.46683 12.2478 5.4184 12.3738C5.36997 12.4998 5.34685 12.6342 5.35035 12.7691C5.35264 13.0346 5.45379 13.2897 5.63407 13.4846C5.81434 13.6795 6.06078 13.8002 6.32527 13.8231C6.16428 13.9463 6.04222 14.1133 5.97372 14.304C5.90522 14.4948 5.8932 14.7013 5.93908 14.8988C5.98497 15.0962 6.08682 15.2762 6.23243 15.4173C6.37803 15.5583 6.56122 15.6543 6.76003 15.6939C6.6338 15.913 6.59165 16.1706 6.64146 16.4185C6.70892 16.6619 6.85576 16.8757 7.05864 17.0261C7.26153 17.1765 7.50884 17.2547 7.7613 17.2485H10.7783C11.1735 17.2485 11.5674 17.1984 11.9508 17.1036L13.8216 16.5502H16.3248C17.6686 16.4975 18.0243 10.4372 16.3643 10.4372Z" fill="#E6F7FF"/>
<path d="M10.4358 9.35689H6.0618C5.89529 9.35533 5.73039 9.38966 5.57833 9.45755C5.42627 9.52544 5.29063 9.62528 5.18062 9.75029C5.07061 9.8753 4.98882 10.0225 4.94081 10.182C4.89281 10.3415 4.87972 10.5094 4.90244 10.6743C4.92598 10.9807 5.06621 11.2663 5.2942 11.4722C5.5222 11.6781 5.82054 11.7887 6.12767 11.781H6.33847C6.20351 11.7844 6.07054 11.8144 5.94717 11.8692C5.82379 11.9241 5.71243 12.0026 5.61945 12.1005C5.52646 12.1984 5.45368 12.3136 5.40525 12.4397C5.35682 12.5657 5.33369 12.7 5.3372 12.835C5.34205 13.101 5.44373 13.3562 5.6232 13.5526C5.80267 13.749 6.0476 13.8733 6.31212 13.9021C6.18613 14.001 6.084 14.1269 6.0133 14.2706C5.94261 14.4142 5.90515 14.572 5.90371 14.7321C5.90437 14.9792 5.98973 15.2187 6.14557 15.4105C6.30141 15.6023 6.51829 15.7349 6.76005 15.7861C6.63291 16.0097 6.5908 16.2717 6.64148 16.5239C6.71139 16.7648 6.85926 16.9757 7.06193 17.1235C7.26459 17.2713 7.51058 17.3477 7.76132 17.3407H10.7783C11.1735 17.3407 11.5675 17.2906 11.9508 17.1958L13.8216 16.5766H16.3248C17.6423 16.5766 17.998 10.4636 16.3248 10.4636C16.0835 10.4768 15.8416 10.4768 15.6002 10.4636C15.5343 10.4636 15.4026 10.2132 15.0732 9.85752C14.5858 9.33054 14.0456 8.65863 13.6635 8.28975C12.7284 7.45942 11.9671 6.45189 11.4239 5.32546C11.3192 5.07687 11.177 4.84582 11.0023 4.64039C10.7828 4.45586 10.4997 4.36489 10.2139 4.38707C9.92805 4.40925 9.66235 4.54279 9.47402 4.75896C9.33749 4.90662 9.22621 5.07576 9.14465 5.25959C9.09135 5.38681 9.05161 5.51928 9.02608 5.65483C8.99074 6.02627 9.02197 6.40103 9.1183 6.76149C9.20262 7.14092 9.32251 7.51113 9.47402 7.86816C9.7217 8.33322 10.0142 8.77457 10.3435 9.18562C10.3842 9.21067 10.4163 9.2474 10.4358 9.29101" stroke="#004B7C" stroke-width="0.843173" stroke-linecap="round" stroke-linejoin="round"/>
</svg>
