<svg width="444" height="57" viewBox="0 0 444 57" fill="none" xmlns="http://www.w3.org/2000/svg">
<g filter="url(#filter0_d_3_1203)">
<mask id="path-1-outside-1_3_1203" maskUnits="userSpaceOnUse" x="-1.5" y="-2" width="443" height="58" fill="black">
<rect fill="white" x="-1.5" y="-2" width="443" height="58"/>
<path d="M0.727273 7.45739V1.27273H33.2216V7.45739H20.6335V42H13.3153V7.45739H0.727273ZM46.4518 42.5966C43.4688 42.5966 40.8836 41.9403 38.6961 40.6278C36.5086 39.3153 34.8116 37.4792 33.6052 35.1193C32.412 32.7595 31.8154 30.0019 31.8154 26.8466C31.8154 23.6913 32.412 20.9271 33.6052 18.554C34.8116 16.1809 36.5086 14.3381 38.6961 13.0256C40.8836 11.7131 43.4688 11.0568 46.4518 11.0568C49.4347 11.0568 52.02 11.7131 54.2075 13.0256C56.395 14.3381 58.0853 16.1809 59.2785 18.554C60.4849 20.9271 61.0882 23.6913 61.0882 26.8466C61.0882 30.0019 60.4849 32.7595 59.2785 35.1193C58.0853 37.4792 56.395 39.3153 54.2075 40.6278C52.02 41.9403 49.4347 42.5966 46.4518 42.5966ZM46.4916 36.8295C48.109 36.8295 49.4613 36.3854 50.5484 35.4972C51.6355 34.5956 52.4442 33.3892 52.9745 31.8778C53.5181 30.3665 53.7899 28.6828 53.7899 26.8267C53.7899 24.9574 53.5181 23.267 52.9745 21.7557C52.4442 20.2311 51.6355 19.018 50.5484 18.1165C49.4613 17.215 48.109 16.7642 46.4916 16.7642C44.8344 16.7642 43.4556 17.215 42.3552 18.1165C41.2681 19.018 40.4527 20.2311 39.9092 21.7557C39.3789 23.267 39.1137 24.9574 39.1137 26.8267C39.1137 28.6828 39.3789 30.3665 39.9092 31.8778C40.4527 33.3892 41.2681 34.5956 42.3552 35.4972C43.4556 36.3854 44.8344 36.8295 46.4916 36.8295ZM65.5882 53.4545V11.4545H72.6678V16.5057H73.0854C73.4566 15.7633 73.9803 14.9744 74.6564 14.1392C75.3326 13.2907 76.2473 12.5682 77.4007 11.9716C78.5541 11.3617 80.0257 11.0568 81.8155 11.0568C84.1754 11.0568 86.3032 11.66 88.199 12.8665C90.1081 14.0597 91.6195 15.8295 92.7331 18.1761C93.86 20.5095 94.4235 23.3731 94.4235 26.767C94.4235 30.1212 93.8733 32.9716 92.7729 35.3182C91.6725 37.6648 90.1744 39.4545 88.2786 40.6875C86.3827 41.9205 84.235 42.5369 81.8354 42.5369C80.0854 42.5369 78.6337 42.2453 77.4803 41.6619C76.3269 41.0786 75.3988 40.3759 74.6962 39.554C74.0068 38.7187 73.4699 37.9299 73.0854 37.1875H72.7871V53.4545H65.5882ZM72.6479 26.7273C72.6479 28.7027 72.9263 30.4328 73.4831 31.9176C74.0532 33.4025 74.8685 34.5625 75.9291 35.3977C77.003 36.2197 78.3023 36.6307 79.8269 36.6307C81.4178 36.6307 82.7502 36.2064 83.824 35.358C84.8979 34.4962 85.7066 33.3229 86.2502 31.8381C86.807 30.34 87.0854 28.6364 87.0854 26.7273C87.0854 24.8314 86.8136 23.1477 86.2701 21.6761C85.7265 20.2045 84.9178 19.0511 83.8439 18.2159C82.7701 17.3807 81.431 16.9631 79.8269 16.9631C78.289 16.9631 76.9831 17.3674 75.9093 18.1761C74.8354 18.9848 74.0201 20.1184 73.4632 21.5767C72.9197 23.035 72.6479 24.7519 72.6479 26.7273ZM146.438 15.0142H139C138.788 13.7945 138.397 12.714 137.827 11.7727C137.257 10.8182 136.548 10.0095 135.699 9.34659C134.851 8.68371 133.883 8.18655 132.796 7.85511C131.722 7.51042 130.562 7.33807 129.316 7.33807C127.102 7.33807 125.14 7.89489 123.429 9.00852C121.719 10.1089 120.38 11.7263 119.412 13.8608C118.444 15.982 117.961 18.5739 117.961 21.6364C117.961 24.7519 118.444 27.3769 119.412 29.5114C120.393 31.6326 121.732 33.2367 123.429 34.3239C125.14 35.3977 127.095 35.9347 129.296 35.9347C130.515 35.9347 131.656 35.7756 132.716 35.4574C133.79 35.1259 134.751 34.642 135.6 34.0057C136.462 33.3693 137.184 32.5871 137.767 31.6591C138.364 30.7311 138.775 29.6705 139 28.4773L146.438 28.517C146.159 30.4527 145.556 32.2689 144.628 33.9659C143.713 35.6629 142.514 37.161 141.029 38.4602C139.544 39.7462 137.807 40.7538 135.819 41.483C133.83 42.1989 131.622 42.5568 129.196 42.5568C125.617 42.5568 122.422 41.7282 119.611 40.071C116.801 38.4138 114.587 36.0208 112.969 32.892C111.352 29.7633 110.543 26.0114 110.543 21.6364C110.543 17.2481 111.358 13.4962 112.989 10.3807C114.62 7.25189 116.84 4.8589 119.651 3.2017C122.462 1.54451 125.643 0.715908 129.196 0.715908C131.463 0.715908 133.571 1.03409 135.52 1.67045C137.469 2.30682 139.206 3.24148 140.73 4.47443C142.255 5.69413 143.508 7.19223 144.489 8.96875C145.483 10.732 146.133 12.7472 146.438 15.0142ZM151.266 42V11.4545H158.246V16.5455H158.564C159.121 14.7822 160.076 13.4233 161.428 12.4688C162.794 11.5009 164.351 11.017 166.101 11.017C166.499 11.017 166.943 11.0369 167.434 11.0767C167.937 11.1032 168.355 11.1496 168.687 11.2159V17.8381C168.382 17.732 167.898 17.6392 167.235 17.5597C166.585 17.4669 165.955 17.4205 165.346 17.4205C164.033 17.4205 162.853 17.7055 161.806 18.2756C160.772 18.8324 159.956 19.608 159.36 20.6023C158.763 21.5966 158.465 22.7434 158.465 24.0426V42H151.266ZM184.124 42.5966C181.062 42.5966 178.417 41.9602 176.189 40.6875C173.975 39.4015 172.272 37.5852 171.079 35.2386C169.885 32.8788 169.289 30.1013 169.289 26.9062C169.289 23.7642 169.885 21.0066 171.079 18.6335C172.285 16.2472 173.969 14.3911 176.13 13.0653C178.291 11.7263 180.83 11.0568 183.746 11.0568C185.629 11.0568 187.405 11.3617 189.076 11.9716C190.76 12.5682 192.244 13.4962 193.53 14.7557C194.83 16.0152 195.85 17.6193 196.593 19.5682C197.335 21.5038 197.706 23.8106 197.706 26.4886V28.696H172.67V23.8438H190.806C190.793 22.465 190.494 21.2386 189.911 20.1648C189.328 19.0777 188.512 18.2225 187.465 17.5994C186.431 16.9763 185.224 16.6648 183.846 16.6648C182.374 16.6648 181.081 17.0227 179.968 17.7386C178.854 18.4413 177.986 19.3693 177.363 20.5227C176.753 21.6629 176.441 22.9157 176.428 24.2812V28.517C176.428 30.2936 176.753 31.8182 177.402 33.0909C178.052 34.3504 178.96 35.3182 180.127 35.9943C181.294 36.6572 182.659 36.9886 184.224 36.9886C185.271 36.9886 186.219 36.8428 187.067 36.5511C187.916 36.2462 188.652 35.8021 189.275 35.2188C189.898 34.6354 190.368 33.9129 190.687 33.0511L197.408 33.8068C196.984 35.5833 196.175 37.1345 194.982 38.4602C193.802 39.7727 192.291 40.7936 190.448 41.5227C188.605 42.2386 186.497 42.5966 184.124 42.5966ZM210.976 42.6165C209.041 42.6165 207.297 42.2718 205.746 41.5824C204.208 40.8797 202.989 39.8456 202.087 38.4801C201.199 37.1146 200.755 35.4309 200.755 33.429C200.755 31.7055 201.073 30.2803 201.709 29.1534C202.346 28.0265 203.214 27.125 204.315 26.4489C205.415 25.7727 206.654 25.2623 208.033 24.9176C209.425 24.5597 210.864 24.3011 212.349 24.142C214.138 23.9564 215.59 23.7907 216.704 23.6449C217.817 23.4858 218.626 23.2472 219.13 22.929C219.647 22.5975 219.905 22.0871 219.905 21.3977V21.2784C219.905 19.7803 219.461 18.6203 218.573 17.7983C217.685 16.9763 216.405 16.5653 214.735 16.5653C212.972 16.5653 211.573 16.9498 210.539 17.7188C209.518 18.4877 208.829 19.3958 208.471 20.4432L201.749 19.4886C202.279 17.6326 203.154 16.0814 204.374 14.8352C205.594 13.5758 207.085 12.6345 208.849 12.0114C210.612 11.375 212.561 11.0568 214.695 11.0568C216.167 11.0568 217.632 11.2292 219.09 11.5739C220.548 11.9186 221.881 12.4886 223.087 13.2841C224.294 14.0663 225.261 15.1335 225.991 16.4858C226.733 17.8381 227.104 19.5284 227.104 21.5568V42H220.184V37.804H219.945C219.508 38.6525 218.891 39.4479 218.096 40.1903C217.314 40.9195 216.326 41.5095 215.133 41.9602C213.953 42.3977 212.567 42.6165 210.976 42.6165ZM212.846 37.3267C214.291 37.3267 215.544 37.0417 216.604 36.4716C217.665 35.8883 218.48 35.1193 219.05 34.1648C219.634 33.2102 219.925 32.1695 219.925 31.0426V27.4432C219.7 27.6288 219.315 27.8011 218.772 27.9602C218.242 28.1193 217.645 28.2585 216.982 28.3778C216.319 28.4972 215.663 28.6032 215.013 28.696C214.364 28.7888 213.8 28.8684 213.323 28.9347C212.249 29.0805 211.288 29.3191 210.44 29.6506C209.591 29.982 208.922 30.446 208.431 31.0426C207.94 31.6259 207.695 32.3816 207.695 33.3097C207.695 34.6354 208.179 35.6364 209.147 36.3125C210.115 36.9886 211.348 37.3267 212.846 37.3267ZM247.986 11.4545V17.0227H230.426V11.4545H247.986ZM234.761 4.13636H241.96V32.8125C241.96 33.7803 242.106 34.5227 242.398 35.0398C242.703 35.5436 243.1 35.8883 243.591 36.0739C244.081 36.2595 244.625 36.3523 245.222 36.3523C245.672 36.3523 246.083 36.3191 246.455 36.2528C246.839 36.1866 247.131 36.1269 247.33 36.0739L248.543 41.7017C248.158 41.8343 247.608 41.9801 246.892 42.1392C246.189 42.2983 245.328 42.3911 244.307 42.4176C242.504 42.4706 240.88 42.1989 239.435 41.6023C237.99 40.9924 236.843 40.0511 235.994 38.7784C235.159 37.5057 234.748 35.9148 234.761 34.0057V4.13636ZM265.392 42.5966C262.409 42.5966 259.824 41.9403 257.636 40.6278C255.449 39.3153 253.752 37.4792 252.546 35.1193C251.352 32.7595 250.756 30.0019 250.756 26.8466C250.756 23.6913 251.352 20.9271 252.546 18.554C253.752 16.1809 255.449 14.3381 257.636 13.0256C259.824 11.7131 262.409 11.0568 265.392 11.0568C268.375 11.0568 270.96 11.7131 273.148 13.0256C275.335 14.3381 277.026 16.1809 278.219 18.554C279.425 20.9271 280.028 23.6913 280.028 26.8466C280.028 30.0019 279.425 32.7595 278.219 35.1193C277.026 37.4792 275.335 39.3153 273.148 40.6278C270.96 41.9403 268.375 42.5966 265.392 42.5966ZM265.432 36.8295C267.049 36.8295 268.402 36.3854 269.489 35.4972C270.576 34.5956 271.385 33.3892 271.915 31.8778C272.458 30.3665 272.73 28.6828 272.73 26.8267C272.73 24.9574 272.458 23.267 271.915 21.7557C271.385 20.2311 270.576 19.018 269.489 18.1165C268.402 17.215 267.049 16.7642 265.432 16.7642C263.775 16.7642 262.396 17.215 261.296 18.1165C260.208 19.018 259.393 20.2311 258.849 21.7557C258.319 23.267 258.054 24.9574 258.054 26.8267C258.054 28.6828 258.319 30.3665 258.849 31.8778C259.393 33.3892 260.208 34.5956 261.296 35.4972C262.396 36.3854 263.775 36.8295 265.432 36.8295ZM284.529 42V11.4545H291.509V16.5455H291.827C292.384 14.7822 293.338 13.4233 294.69 12.4688C296.056 11.5009 297.614 11.017 299.364 11.017C299.762 11.017 300.206 11.0369 300.696 11.0767C301.2 11.1032 301.618 11.1496 301.949 11.2159V17.8381C301.644 17.732 301.16 17.6392 300.497 17.5597C299.848 17.4669 299.218 17.4205 298.608 17.4205C297.296 17.4205 296.116 17.7055 295.068 18.2756C294.034 18.8324 293.219 19.608 292.622 20.6023C292.026 21.5966 291.727 22.7434 291.727 24.0426V42H284.529ZM332.655 11.4545V17.0227H315.095V11.4545H332.655ZM319.431 4.13636H326.63V32.8125C326.63 33.7803 326.775 34.5227 327.067 35.0398C327.372 35.5436 327.77 35.8883 328.26 36.0739C328.751 36.2595 329.294 36.3523 329.891 36.3523C330.342 36.3523 330.753 36.3191 331.124 36.2528C331.508 36.1866 331.8 36.1269 331.999 36.0739L333.212 41.7017C332.827 41.8343 332.277 41.9801 331.561 42.1392C330.859 42.2983 329.997 42.3911 328.976 42.4176C327.173 42.4706 325.549 42.1989 324.104 41.6023C322.659 40.9924 321.512 40.0511 320.664 38.7784C319.828 37.5057 319.417 35.9148 319.431 34.0057V4.13636ZM350.061 42.5966C347.079 42.5966 344.493 41.9403 342.306 40.6278C340.118 39.3153 338.421 37.4792 337.215 35.1193C336.022 32.7595 335.425 30.0019 335.425 26.8466C335.425 23.6913 336.022 20.9271 337.215 18.554C338.421 16.1809 340.118 14.3381 342.306 13.0256C344.493 11.7131 347.079 11.0568 350.061 11.0568C353.044 11.0568 355.63 11.7131 357.817 13.0256C360.005 14.3381 361.695 16.1809 362.888 18.554C364.095 20.9271 364.698 23.6913 364.698 26.8466C364.698 30.0019 364.095 32.7595 362.888 35.1193C361.695 37.4792 360.005 39.3153 357.817 40.6278C355.63 41.9403 353.044 42.5966 350.061 42.5966ZM350.101 36.8295C351.719 36.8295 353.071 36.3854 354.158 35.4972C355.245 34.5956 356.054 33.3892 356.584 31.8778C357.128 30.3665 357.4 28.6828 357.4 26.8267C357.4 24.9574 357.128 23.267 356.584 21.7557C356.054 20.2311 355.245 19.018 354.158 18.1165C353.071 17.215 351.719 16.7642 350.101 16.7642C348.444 16.7642 347.065 17.215 345.965 18.1165C344.878 19.018 344.062 20.2311 343.519 21.7557C342.989 23.267 342.723 24.9574 342.723 26.8267C342.723 28.6828 342.989 30.3665 343.519 31.8778C344.062 33.3892 344.878 34.5956 345.965 35.4972C347.065 36.3854 348.444 36.8295 350.101 36.8295ZM382.522 42.5966C379.539 42.5966 376.954 41.9403 374.766 40.6278C372.579 39.3153 370.882 37.4792 369.675 35.1193C368.482 32.7595 367.885 30.0019 367.885 26.8466C367.885 23.6913 368.482 20.9271 369.675 18.554C370.882 16.1809 372.579 14.3381 374.766 13.0256C376.954 11.7131 379.539 11.0568 382.522 11.0568C385.505 11.0568 388.09 11.7131 390.277 13.0256C392.465 14.3381 394.155 16.1809 395.348 18.554C396.555 20.9271 397.158 23.6913 397.158 26.8466C397.158 30.0019 396.555 32.7595 395.348 35.1193C394.155 37.4792 392.465 39.3153 390.277 40.6278C388.09 41.9403 385.505 42.5966 382.522 42.5966ZM382.562 36.8295C384.179 36.8295 385.531 36.3854 386.618 35.4972C387.705 34.5956 388.514 33.3892 389.045 31.8778C389.588 30.3665 389.86 28.6828 389.86 26.8267C389.86 24.9574 389.588 23.267 389.045 21.7557C388.514 20.2311 387.705 19.018 386.618 18.1165C385.531 17.215 384.179 16.7642 382.562 16.7642C380.904 16.7642 379.526 17.215 378.425 18.1165C377.338 19.018 376.523 20.2311 375.979 21.7557C375.449 23.267 375.184 24.9574 375.184 26.8267C375.184 28.6828 375.449 30.3665 375.979 31.8778C376.523 33.3892 377.338 34.5956 378.425 35.4972C379.526 36.3854 380.904 36.8295 382.562 36.8295ZM408.857 1.27273V42H401.658V1.27273H408.857ZM438.792 19.5284L432.229 20.2443C432.044 19.5814 431.719 18.9583 431.255 18.375C430.804 17.7917 430.194 17.321 429.425 16.9631C428.656 16.6051 427.715 16.4261 426.601 16.4261C425.103 16.4261 423.844 16.7509 422.823 17.4006C421.816 18.0502 421.318 18.892 421.332 19.9261C421.318 20.8144 421.643 21.5369 422.306 22.0938C422.982 22.6506 424.096 23.108 425.647 23.4659L430.857 24.5795C433.747 25.2027 435.895 26.1903 437.3 27.5426C438.719 28.8949 439.435 30.6648 439.448 32.8523C439.435 34.7746 438.871 36.4716 437.758 37.9432C436.657 39.4015 435.126 40.5417 433.164 41.3636C431.202 42.1856 428.948 42.5966 426.403 42.5966C422.664 42.5966 419.655 41.8144 417.374 40.25C415.094 38.6723 413.735 36.4782 413.298 33.6676L420.317 32.9915C420.636 34.3703 421.312 35.411 422.346 36.1136C423.38 36.8163 424.726 37.1676 426.383 37.1676C428.093 37.1676 429.465 36.8163 430.499 36.1136C431.547 35.411 432.07 34.5426 432.07 33.5085C432.07 32.6335 431.732 31.911 431.056 31.3409C430.393 30.7708 429.359 30.3333 427.954 30.0284L422.744 28.9347C419.814 28.3248 417.646 27.2973 416.241 25.8523C414.835 24.3939 414.139 22.5511 414.153 20.3239C414.139 18.4413 414.65 16.8106 415.684 15.4318C416.731 14.0398 418.183 12.9659 420.039 12.2102C421.908 11.4413 424.063 11.0568 426.502 11.0568C430.082 11.0568 432.899 11.8191 434.954 13.3438C437.022 14.8684 438.301 16.9299 438.792 19.5284Z"/>
</mask>
<path d="M0.727273 7.45739V1.27273H33.2216V7.45739H20.6335V42H13.3153V7.45739H0.727273ZM46.4518 42.5966C43.4688 42.5966 40.8836 41.9403 38.6961 40.6278C36.5086 39.3153 34.8116 37.4792 33.6052 35.1193C32.412 32.7595 31.8154 30.0019 31.8154 26.8466C31.8154 23.6913 32.412 20.9271 33.6052 18.554C34.8116 16.1809 36.5086 14.3381 38.6961 13.0256C40.8836 11.7131 43.4688 11.0568 46.4518 11.0568C49.4347 11.0568 52.02 11.7131 54.2075 13.0256C56.395 14.3381 58.0853 16.1809 59.2785 18.554C60.4849 20.9271 61.0882 23.6913 61.0882 26.8466C61.0882 30.0019 60.4849 32.7595 59.2785 35.1193C58.0853 37.4792 56.395 39.3153 54.2075 40.6278C52.02 41.9403 49.4347 42.5966 46.4518 42.5966ZM46.4916 36.8295C48.109 36.8295 49.4613 36.3854 50.5484 35.4972C51.6355 34.5956 52.4442 33.3892 52.9745 31.8778C53.5181 30.3665 53.7899 28.6828 53.7899 26.8267C53.7899 24.9574 53.5181 23.267 52.9745 21.7557C52.4442 20.2311 51.6355 19.018 50.5484 18.1165C49.4613 17.215 48.109 16.7642 46.4916 16.7642C44.8344 16.7642 43.4556 17.215 42.3552 18.1165C41.2681 19.018 40.4527 20.2311 39.9092 21.7557C39.3789 23.267 39.1137 24.9574 39.1137 26.8267C39.1137 28.6828 39.3789 30.3665 39.9092 31.8778C40.4527 33.3892 41.2681 34.5956 42.3552 35.4972C43.4556 36.3854 44.8344 36.8295 46.4916 36.8295ZM65.5882 53.4545V11.4545H72.6678V16.5057H73.0854C73.4566 15.7633 73.9803 14.9744 74.6564 14.1392C75.3326 13.2907 76.2473 12.5682 77.4007 11.9716C78.5541 11.3617 80.0257 11.0568 81.8155 11.0568C84.1754 11.0568 86.3032 11.66 88.199 12.8665C90.1081 14.0597 91.6195 15.8295 92.7331 18.1761C93.86 20.5095 94.4235 23.3731 94.4235 26.767C94.4235 30.1212 93.8733 32.9716 92.7729 35.3182C91.6725 37.6648 90.1744 39.4545 88.2786 40.6875C86.3827 41.9205 84.235 42.5369 81.8354 42.5369C80.0854 42.5369 78.6337 42.2453 77.4803 41.6619C76.3269 41.0786 75.3988 40.3759 74.6962 39.554C74.0068 38.7187 73.4699 37.9299 73.0854 37.1875H72.7871V53.4545H65.5882ZM72.6479 26.7273C72.6479 28.7027 72.9263 30.4328 73.4831 31.9176C74.0532 33.4025 74.8685 34.5625 75.9291 35.3977C77.003 36.2197 78.3023 36.6307 79.8269 36.6307C81.4178 36.6307 82.7502 36.2064 83.824 35.358C84.8979 34.4962 85.7066 33.3229 86.2502 31.8381C86.807 30.34 87.0854 28.6364 87.0854 26.7273C87.0854 24.8314 86.8136 23.1477 86.2701 21.6761C85.7265 20.2045 84.9178 19.0511 83.8439 18.2159C82.7701 17.3807 81.431 16.9631 79.8269 16.9631C78.289 16.9631 76.9831 17.3674 75.9093 18.1761C74.8354 18.9848 74.0201 20.1184 73.4632 21.5767C72.9197 23.035 72.6479 24.7519 72.6479 26.7273ZM146.438 15.0142H139C138.788 13.7945 138.397 12.714 137.827 11.7727C137.257 10.8182 136.548 10.0095 135.699 9.34659C134.851 8.68371 133.883 8.18655 132.796 7.85511C131.722 7.51042 130.562 7.33807 129.316 7.33807C127.102 7.33807 125.14 7.89489 123.429 9.00852C121.719 10.1089 120.38 11.7263 119.412 13.8608C118.444 15.982 117.961 18.5739 117.961 21.6364C117.961 24.7519 118.444 27.3769 119.412 29.5114C120.393 31.6326 121.732 33.2367 123.429 34.3239C125.14 35.3977 127.095 35.9347 129.296 35.9347C130.515 35.9347 131.656 35.7756 132.716 35.4574C133.79 35.1259 134.751 34.642 135.6 34.0057C136.462 33.3693 137.184 32.5871 137.767 31.6591C138.364 30.7311 138.775 29.6705 139 28.4773L146.438 28.517C146.159 30.4527 145.556 32.2689 144.628 33.9659C143.713 35.6629 142.514 37.161 141.029 38.4602C139.544 39.7462 137.807 40.7538 135.819 41.483C133.83 42.1989 131.622 42.5568 129.196 42.5568C125.617 42.5568 122.422 41.7282 119.611 40.071C116.801 38.4138 114.587 36.0208 112.969 32.892C111.352 29.7633 110.543 26.0114 110.543 21.6364C110.543 17.2481 111.358 13.4962 112.989 10.3807C114.62 7.25189 116.84 4.8589 119.651 3.2017C122.462 1.54451 125.643 0.715908 129.196 0.715908C131.463 0.715908 133.571 1.03409 135.52 1.67045C137.469 2.30682 139.206 3.24148 140.73 4.47443C142.255 5.69413 143.508 7.19223 144.489 8.96875C145.483 10.732 146.133 12.7472 146.438 15.0142ZM151.266 42V11.4545H158.246V16.5455H158.564C159.121 14.7822 160.076 13.4233 161.428 12.4688C162.794 11.5009 164.351 11.017 166.101 11.017C166.499 11.017 166.943 11.0369 167.434 11.0767C167.937 11.1032 168.355 11.1496 168.687 11.2159V17.8381C168.382 17.732 167.898 17.6392 167.235 17.5597C166.585 17.4669 165.955 17.4205 165.346 17.4205C164.033 17.4205 162.853 17.7055 161.806 18.2756C160.772 18.8324 159.956 19.608 159.36 20.6023C158.763 21.5966 158.465 22.7434 158.465 24.0426V42H151.266ZM184.124 42.5966C181.062 42.5966 178.417 41.9602 176.189 40.6875C173.975 39.4015 172.272 37.5852 171.079 35.2386C169.885 32.8788 169.289 30.1013 169.289 26.9062C169.289 23.7642 169.885 21.0066 171.079 18.6335C172.285 16.2472 173.969 14.3911 176.13 13.0653C178.291 11.7263 180.83 11.0568 183.746 11.0568C185.629 11.0568 187.405 11.3617 189.076 11.9716C190.76 12.5682 192.244 13.4962 193.53 14.7557C194.83 16.0152 195.85 17.6193 196.593 19.5682C197.335 21.5038 197.706 23.8106 197.706 26.4886V28.696H172.67V23.8438H190.806C190.793 22.465 190.494 21.2386 189.911 20.1648C189.328 19.0777 188.512 18.2225 187.465 17.5994C186.431 16.9763 185.224 16.6648 183.846 16.6648C182.374 16.6648 181.081 17.0227 179.968 17.7386C178.854 18.4413 177.986 19.3693 177.363 20.5227C176.753 21.6629 176.441 22.9157 176.428 24.2812V28.517C176.428 30.2936 176.753 31.8182 177.402 33.0909C178.052 34.3504 178.96 35.3182 180.127 35.9943C181.294 36.6572 182.659 36.9886 184.224 36.9886C185.271 36.9886 186.219 36.8428 187.067 36.5511C187.916 36.2462 188.652 35.8021 189.275 35.2188C189.898 34.6354 190.368 33.9129 190.687 33.0511L197.408 33.8068C196.984 35.5833 196.175 37.1345 194.982 38.4602C193.802 39.7727 192.291 40.7936 190.448 41.5227C188.605 42.2386 186.497 42.5966 184.124 42.5966ZM210.976 42.6165C209.041 42.6165 207.297 42.2718 205.746 41.5824C204.208 40.8797 202.989 39.8456 202.087 38.4801C201.199 37.1146 200.755 35.4309 200.755 33.429C200.755 31.7055 201.073 30.2803 201.709 29.1534C202.346 28.0265 203.214 27.125 204.315 26.4489C205.415 25.7727 206.654 25.2623 208.033 24.9176C209.425 24.5597 210.864 24.3011 212.349 24.142C214.138 23.9564 215.59 23.7907 216.704 23.6449C217.817 23.4858 218.626 23.2472 219.13 22.929C219.647 22.5975 219.905 22.0871 219.905 21.3977V21.2784C219.905 19.7803 219.461 18.6203 218.573 17.7983C217.685 16.9763 216.405 16.5653 214.735 16.5653C212.972 16.5653 211.573 16.9498 210.539 17.7188C209.518 18.4877 208.829 19.3958 208.471 20.4432L201.749 19.4886C202.279 17.6326 203.154 16.0814 204.374 14.8352C205.594 13.5758 207.085 12.6345 208.849 12.0114C210.612 11.375 212.561 11.0568 214.695 11.0568C216.167 11.0568 217.632 11.2292 219.09 11.5739C220.548 11.9186 221.881 12.4886 223.087 13.2841C224.294 14.0663 225.261 15.1335 225.991 16.4858C226.733 17.8381 227.104 19.5284 227.104 21.5568V42H220.184V37.804H219.945C219.508 38.6525 218.891 39.4479 218.096 40.1903C217.314 40.9195 216.326 41.5095 215.133 41.9602C213.953 42.3977 212.567 42.6165 210.976 42.6165ZM212.846 37.3267C214.291 37.3267 215.544 37.0417 216.604 36.4716C217.665 35.8883 218.48 35.1193 219.05 34.1648C219.634 33.2102 219.925 32.1695 219.925 31.0426V27.4432C219.7 27.6288 219.315 27.8011 218.772 27.9602C218.242 28.1193 217.645 28.2585 216.982 28.3778C216.319 28.4972 215.663 28.6032 215.013 28.696C214.364 28.7888 213.8 28.8684 213.323 28.9347C212.249 29.0805 211.288 29.3191 210.44 29.6506C209.591 29.982 208.922 30.446 208.431 31.0426C207.94 31.6259 207.695 32.3816 207.695 33.3097C207.695 34.6354 208.179 35.6364 209.147 36.3125C210.115 36.9886 211.348 37.3267 212.846 37.3267ZM247.986 11.4545V17.0227H230.426V11.4545H247.986ZM234.761 4.13636H241.96V32.8125C241.96 33.7803 242.106 34.5227 242.398 35.0398C242.703 35.5436 243.1 35.8883 243.591 36.0739C244.081 36.2595 244.625 36.3523 245.222 36.3523C245.672 36.3523 246.083 36.3191 246.455 36.2528C246.839 36.1866 247.131 36.1269 247.33 36.0739L248.543 41.7017C248.158 41.8343 247.608 41.9801 246.892 42.1392C246.189 42.2983 245.328 42.3911 244.307 42.4176C242.504 42.4706 240.88 42.1989 239.435 41.6023C237.99 40.9924 236.843 40.0511 235.994 38.7784C235.159 37.5057 234.748 35.9148 234.761 34.0057V4.13636ZM265.392 42.5966C262.409 42.5966 259.824 41.9403 257.636 40.6278C255.449 39.3153 253.752 37.4792 252.546 35.1193C251.352 32.7595 250.756 30.0019 250.756 26.8466C250.756 23.6913 251.352 20.9271 252.546 18.554C253.752 16.1809 255.449 14.3381 257.636 13.0256C259.824 11.7131 262.409 11.0568 265.392 11.0568C268.375 11.0568 270.96 11.7131 273.148 13.0256C275.335 14.3381 277.026 16.1809 278.219 18.554C279.425 20.9271 280.028 23.6913 280.028 26.8466C280.028 30.0019 279.425 32.7595 278.219 35.1193C277.026 37.4792 275.335 39.3153 273.148 40.6278C270.96 41.9403 268.375 42.5966 265.392 42.5966ZM265.432 36.8295C267.049 36.8295 268.402 36.3854 269.489 35.4972C270.576 34.5956 271.385 33.3892 271.915 31.8778C272.458 30.3665 272.73 28.6828 272.73 26.8267C272.73 24.9574 272.458 23.267 271.915 21.7557C271.385 20.2311 270.576 19.018 269.489 18.1165C268.402 17.215 267.049 16.7642 265.432 16.7642C263.775 16.7642 262.396 17.215 261.296 18.1165C260.208 19.018 259.393 20.2311 258.849 21.7557C258.319 23.267 258.054 24.9574 258.054 26.8267C258.054 28.6828 258.319 30.3665 258.849 31.8778C259.393 33.3892 260.208 34.5956 261.296 35.4972C262.396 36.3854 263.775 36.8295 265.432 36.8295ZM284.529 42V11.4545H291.509V16.5455H291.827C292.384 14.7822 293.338 13.4233 294.69 12.4688C296.056 11.5009 297.614 11.017 299.364 11.017C299.762 11.017 300.206 11.0369 300.696 11.0767C301.2 11.1032 301.618 11.1496 301.949 11.2159V17.8381C301.644 17.732 301.16 17.6392 300.497 17.5597C299.848 17.4669 299.218 17.4205 298.608 17.4205C297.296 17.4205 296.116 17.7055 295.068 18.2756C294.034 18.8324 293.219 19.608 292.622 20.6023C292.026 21.5966 291.727 22.7434 291.727 24.0426V42H284.529ZM332.655 11.4545V17.0227H315.095V11.4545H332.655ZM319.431 4.13636H326.63V32.8125C326.63 33.7803 326.775 34.5227 327.067 35.0398C327.372 35.5436 327.77 35.8883 328.26 36.0739C328.751 36.2595 329.294 36.3523 329.891 36.3523C330.342 36.3523 330.753 36.3191 331.124 36.2528C331.508 36.1866 331.8 36.1269 331.999 36.0739L333.212 41.7017C332.827 41.8343 332.277 41.9801 331.561 42.1392C330.859 42.2983 329.997 42.3911 328.976 42.4176C327.173 42.4706 325.549 42.1989 324.104 41.6023C322.659 40.9924 321.512 40.0511 320.664 38.7784C319.828 37.5057 319.417 35.9148 319.431 34.0057V4.13636ZM350.061 42.5966C347.079 42.5966 344.493 41.9403 342.306 40.6278C340.118 39.3153 338.421 37.4792 337.215 35.1193C336.022 32.7595 335.425 30.0019 335.425 26.8466C335.425 23.6913 336.022 20.9271 337.215 18.554C338.421 16.1809 340.118 14.3381 342.306 13.0256C344.493 11.7131 347.079 11.0568 350.061 11.0568C353.044 11.0568 355.63 11.7131 357.817 13.0256C360.005 14.3381 361.695 16.1809 362.888 18.554C364.095 20.9271 364.698 23.6913 364.698 26.8466C364.698 30.0019 364.095 32.7595 362.888 35.1193C361.695 37.4792 360.005 39.3153 357.817 40.6278C355.63 41.9403 353.044 42.5966 350.061 42.5966ZM350.101 36.8295C351.719 36.8295 353.071 36.3854 354.158 35.4972C355.245 34.5956 356.054 33.3892 356.584 31.8778C357.128 30.3665 357.4 28.6828 357.4 26.8267C357.4 24.9574 357.128 23.267 356.584 21.7557C356.054 20.2311 355.245 19.018 354.158 18.1165C353.071 17.215 351.719 16.7642 350.101 16.7642C348.444 16.7642 347.065 17.215 345.965 18.1165C344.878 19.018 344.062 20.2311 343.519 21.7557C342.989 23.267 342.723 24.9574 342.723 26.8267C342.723 28.6828 342.989 30.3665 343.519 31.8778C344.062 33.3892 344.878 34.5956 345.965 35.4972C347.065 36.3854 348.444 36.8295 350.101 36.8295ZM382.522 42.5966C379.539 42.5966 376.954 41.9403 374.766 40.6278C372.579 39.3153 370.882 37.4792 369.675 35.1193C368.482 32.7595 367.885 30.0019 367.885 26.8466C367.885 23.6913 368.482 20.9271 369.675 18.554C370.882 16.1809 372.579 14.3381 374.766 13.0256C376.954 11.7131 379.539 11.0568 382.522 11.0568C385.505 11.0568 388.09 11.7131 390.277 13.0256C392.465 14.3381 394.155 16.1809 395.348 18.554C396.555 20.9271 397.158 23.6913 397.158 26.8466C397.158 30.0019 396.555 32.7595 395.348 35.1193C394.155 37.4792 392.465 39.3153 390.277 40.6278C388.09 41.9403 385.505 42.5966 382.522 42.5966ZM382.562 36.8295C384.179 36.8295 385.531 36.3854 386.618 35.4972C387.705 34.5956 388.514 33.3892 389.045 31.8778C389.588 30.3665 389.86 28.6828 389.86 26.8267C389.86 24.9574 389.588 23.267 389.045 21.7557C388.514 20.2311 387.705 19.018 386.618 18.1165C385.531 17.215 384.179 16.7642 382.562 16.7642C380.904 16.7642 379.526 17.215 378.425 18.1165C377.338 19.018 376.523 20.2311 375.979 21.7557C375.449 23.267 375.184 24.9574 375.184 26.8267C375.184 28.6828 375.449 30.3665 375.979 31.8778C376.523 33.3892 377.338 34.5956 378.425 35.4972C379.526 36.3854 380.904 36.8295 382.562 36.8295ZM408.857 1.27273V42H401.658V1.27273H408.857ZM438.792 19.5284L432.229 20.2443C432.044 19.5814 431.719 18.9583 431.255 18.375C430.804 17.7917 430.194 17.321 429.425 16.9631C428.656 16.6051 427.715 16.4261 426.601 16.4261C425.103 16.4261 423.844 16.7509 422.823 17.4006C421.816 18.0502 421.318 18.892 421.332 19.9261C421.318 20.8144 421.643 21.5369 422.306 22.0938C422.982 22.6506 424.096 23.108 425.647 23.4659L430.857 24.5795C433.747 25.2027 435.895 26.1903 437.3 27.5426C438.719 28.8949 439.435 30.6648 439.448 32.8523C439.435 34.7746 438.871 36.4716 437.758 37.9432C436.657 39.4015 435.126 40.5417 433.164 41.3636C431.202 42.1856 428.948 42.5966 426.403 42.5966C422.664 42.5966 419.655 41.8144 417.374 40.25C415.094 38.6723 413.735 36.4782 413.298 33.6676L420.317 32.9915C420.636 34.3703 421.312 35.411 422.346 36.1136C423.38 36.8163 424.726 37.1676 426.383 37.1676C428.093 37.1676 429.465 36.8163 430.499 36.1136C431.547 35.411 432.07 34.5426 432.07 33.5085C432.07 32.6335 431.732 31.911 431.056 31.3409C430.393 30.7708 429.359 30.3333 427.954 30.0284L422.744 28.9347C419.814 28.3248 417.646 27.2973 416.241 25.8523C414.835 24.3939 414.139 22.5511 414.153 20.3239C414.139 18.4413 414.65 16.8106 415.684 15.4318C416.731 14.0398 418.183 12.9659 420.039 12.2102C421.908 11.4413 424.063 11.0568 426.502 11.0568C430.082 11.0568 432.899 11.8191 434.954 13.3438C437.022 14.8684 438.301 16.9299 438.792 19.5284Z" fill="white"/>
<path d="M0.727273 7.45739H-1.27273V9.45739H0.727273V7.45739ZM0.727273 1.27273V-0.727274H-1.27273V1.27273H0.727273ZM33.2216 1.27273H35.2216V-0.727274H33.2216V1.27273ZM33.2216 7.45739V9.45739H35.2216V7.45739H33.2216ZM20.6335 7.45739V5.45739H18.6335V7.45739H20.6335ZM20.6335 42V44H22.6335V42H20.6335ZM13.3153 42H11.3153V44H13.3153V42ZM13.3153 7.45739H15.3153V5.45739H13.3153V7.45739ZM2.72727 7.45739V1.27273H-1.27273V7.45739H2.72727ZM0.727273 3.27273H33.2216V-0.727274H0.727273V3.27273ZM31.2216 1.27273V7.45739H35.2216V1.27273H31.2216ZM33.2216 5.45739H20.6335V9.45739H33.2216V5.45739ZM18.6335 7.45739V42H22.6335V7.45739H18.6335ZM20.6335 40H13.3153V44H20.6335V40ZM15.3153 42V7.45739H11.3153V42H15.3153ZM13.3153 5.45739H0.727273V9.45739H13.3153V5.45739ZM38.6961 40.6278L37.6671 42.3428L37.6671 42.3428L38.6961 40.6278ZM33.6052 35.1193L31.8204 36.0218L31.8244 36.0297L33.6052 35.1193ZM33.6052 18.554L31.8223 17.6476L31.8183 17.6556L33.6052 18.554ZM38.6961 13.0256L39.7251 14.7406L39.7251 14.7406L38.6961 13.0256ZM54.2075 13.0256L53.1785 14.7406L53.1785 14.7406L54.2075 13.0256ZM59.2785 18.554L57.4916 19.4524L57.4957 19.4603L59.2785 18.554ZM59.2785 35.1193L57.4977 34.2089L57.4937 34.2169L59.2785 35.1193ZM54.2075 40.6278L53.1785 38.9129L53.1785 38.9129L54.2075 40.6278ZM50.5484 35.4972L51.8138 37.0459L51.8195 37.0413L51.8251 37.0367L50.5484 35.4972ZM52.9745 31.8778L51.0925 31.201L51.0899 31.2083L51.0873 31.2157L52.9745 31.8778ZM52.9745 21.7557L51.0855 22.4127L51.089 22.4226L51.0925 22.4325L52.9745 21.7557ZM50.5484 18.1165L51.8251 16.577L51.8251 16.577L50.5484 18.1165ZM42.3552 18.1165L41.0877 16.5694L41.0785 16.577L42.3552 18.1165ZM39.9092 21.7557L38.0253 21.084L38.022 21.0935L39.9092 21.7557ZM39.9092 31.8778L38.022 32.54L38.0246 32.5474L38.0272 32.5547L39.9092 31.8778ZM42.3552 35.4972L41.0785 37.0367L41.0887 37.0451L41.099 37.0534L42.3552 35.4972ZM46.4518 40.5966C43.7692 40.5966 41.5525 40.0093 39.7251 38.9129L37.6671 42.3428C40.2147 43.8714 43.1685 44.5966 46.4518 44.5966V40.5966ZM39.7251 38.9129C37.8714 37.8007 36.429 36.2491 35.386 34.2089L31.8244 36.0297C33.1943 38.7092 35.1458 40.83 37.6671 42.3428L39.7251 38.9129ZM35.39 34.2169C34.3631 32.1859 33.8154 29.7485 33.8154 26.8466H29.8154C29.8154 30.2553 30.4609 33.333 31.8204 36.0218L35.39 34.2169ZM33.8154 26.8466C33.8154 23.9451 34.363 21.499 35.3921 19.4524L31.8183 17.6556C30.461 20.3552 29.8154 23.4375 29.8154 26.8466H33.8154ZM35.388 19.4603C36.432 17.4069 37.8743 15.851 39.7251 14.7406L37.6671 11.3106C35.1429 12.8251 33.1913 14.9548 31.8224 17.6476L35.388 19.4603ZM39.7251 14.7406C41.5525 13.6441 43.7692 13.0568 46.4518 13.0568V9.05682C43.1685 9.05682 40.2147 9.78202 37.6671 11.3106L39.7251 14.7406ZM46.4518 13.0568C49.1344 13.0568 51.3511 13.6441 53.1785 14.7406L55.2365 11.3106C52.6889 9.78202 49.7351 9.05682 46.4518 9.05682V13.0568ZM53.1785 14.7406C55.0273 15.8499 56.4613 17.4031 57.4916 19.4524L61.0653 17.6556C59.7094 14.9586 57.7626 12.8263 55.2365 11.3106L53.1785 14.7406ZM57.4957 19.4603C58.5352 21.5051 59.0882 23.9483 59.0882 26.8466H63.0882C63.0882 23.4343 62.4347 20.3491 61.0613 17.6476L57.4957 19.4603ZM59.0882 26.8466C59.0882 29.7453 58.5351 32.1798 57.4977 34.2089L61.0593 36.0297C62.4348 33.3391 63.0882 30.2585 63.0882 26.8466H59.0882ZM57.4937 34.2169C56.4642 36.253 55.0302 37.8018 53.1785 38.9129L55.2365 42.3428C57.7597 40.8289 59.7064 38.7054 61.0633 36.0218L57.4937 34.2169ZM53.1785 38.9129C51.3511 40.0093 49.1344 40.5966 46.4518 40.5966V44.5966C49.7351 44.5966 52.6889 43.8714 55.2365 42.3428L53.1785 38.9129ZM46.4916 38.8295C48.4964 38.8295 50.3163 38.2695 51.8138 37.0459L49.2829 33.9484C48.6063 34.5013 47.7216 34.8295 46.4916 34.8295V38.8295ZM51.8251 37.0367C53.2275 35.8737 54.2277 34.3469 54.8617 32.54L51.0873 31.2157C50.6607 32.4315 50.0435 33.3176 49.2717 33.9576L51.8251 37.0367ZM54.8565 32.5547C55.4893 30.7953 55.7899 28.8782 55.7899 26.8267H51.7899C51.7899 28.4873 51.5469 29.9376 51.0925 31.201L54.8565 32.5547ZM55.7899 26.8267C55.7899 24.7637 55.4898 22.8397 54.8565 21.0788L51.0925 22.4325C51.5464 23.6944 51.7899 25.151 51.7899 26.8267H55.7899ZM54.8635 21.0986C54.2309 19.2798 53.2312 17.7431 51.8251 16.577L49.2717 19.656C50.0398 20.2929 50.6576 21.1823 51.0855 22.4127L54.8635 21.0986ZM51.8251 16.577C50.3276 15.3352 48.5037 14.7642 46.4916 14.7642V18.7642C47.7143 18.7642 48.5949 19.0948 49.2717 19.656L51.8251 16.577ZM46.4916 14.7642C44.4522 14.7642 42.6029 15.328 41.0877 16.5694L43.6227 19.6636C44.3082 19.1019 45.2165 18.7642 46.4916 18.7642V14.7642ZM41.0785 16.577C39.6763 17.7398 38.6717 19.2712 38.0253 21.084L41.793 22.4273C42.2338 21.191 42.8599 20.2962 43.6319 19.656L41.0785 16.577ZM38.022 21.0935C37.4057 22.8499 37.1137 24.7688 37.1137 26.8267H41.1137C41.1137 25.146 41.352 23.6842 41.7964 22.4179L38.022 21.0935ZM37.1137 26.8267C37.1137 28.8731 37.4062 30.7851 38.022 32.54L41.7964 31.2157C41.3515 29.9479 41.1137 28.4924 41.1137 26.8267H37.1137ZM38.0272 32.5547C38.6748 34.3555 39.68 35.8769 41.0785 37.0367L43.6319 33.9576C42.8561 33.3143 42.2306 32.4229 41.7912 31.201L38.0272 32.5547ZM41.099 37.0534C42.6141 38.2765 44.4594 38.8295 46.4916 38.8295V34.8295C45.2094 34.8295 44.297 34.4944 43.6114 33.9409L41.099 37.0534ZM65.5882 53.4545H63.5882V55.4545H65.5882V53.4545ZM65.5882 11.4545V9.45454H63.5882V11.4545H65.5882ZM72.6678 11.4545H74.6678V9.45454H72.6678V11.4545ZM72.6678 16.5057H70.6678V18.5057H72.6678V16.5057ZM73.0854 16.5057V18.5057H74.3215L74.8743 17.4001L73.0854 16.5057ZM74.6564 14.1392L76.2109 15.3976L76.2157 15.3916L76.2205 15.3856L74.6564 14.1392ZM77.4007 11.9716L78.3196 13.748L78.3276 13.7439L78.3356 13.7397L77.4007 11.9716ZM88.199 12.8665L87.1253 14.5538L87.1321 14.5582L87.139 14.5625L88.199 12.8665ZM92.7331 18.1761L90.9262 19.0336L90.9322 19.0459L92.7331 18.1761ZM92.7729 35.3182L90.9621 34.4691L90.9621 34.4691L92.7729 35.3182ZM88.2786 40.6875L89.369 42.3641L89.369 42.3641L88.2786 40.6875ZM77.4803 41.6619L76.5777 43.4467L76.5777 43.4467L77.4803 41.6619ZM74.6962 39.554L73.1537 40.8271L73.1647 40.8404L73.1759 40.8535L74.6962 39.554ZM73.0854 37.1875L74.8614 36.2678L74.3019 35.1875H73.0854V37.1875ZM72.7871 37.1875V35.1875H70.7871V37.1875H72.7871ZM72.7871 53.4545V55.4545H74.7871V53.4545H72.7871ZM73.4831 31.9176L71.6105 32.6199L71.6132 32.6272L71.616 32.6345L73.4831 31.9176ZM75.9291 35.3977L74.6918 36.969L74.7026 36.9775L74.7135 36.9859L75.9291 35.3977ZM83.824 35.358L85.064 36.9272L85.0699 36.9225L85.0758 36.9178L83.824 35.358ZM86.2502 31.8381L84.3755 31.1413L84.3721 31.1505L86.2502 31.8381ZM86.2701 21.6761L88.1462 20.9832L88.1462 20.9832L86.2701 21.6761ZM83.8439 18.2159L85.0718 16.6372L85.0718 16.6372L83.8439 18.2159ZM75.9093 18.1761L77.1124 19.7738L77.1124 19.7738L75.9093 18.1761ZM73.4632 21.5767L71.5948 20.8633L71.592 20.8707L71.5892 20.8782L73.4632 21.5767ZM67.5882 53.4545V11.4545H63.5882V53.4545H67.5882ZM65.5882 13.4545H72.6678V9.45454H65.5882V13.4545ZM70.6678 11.4545V16.5057H74.6678V11.4545H70.6678ZM72.6678 18.5057H73.0854V14.5057H72.6678V18.5057ZM74.8743 17.4001C75.1651 16.8185 75.6007 16.1514 76.2109 15.3976L73.1019 12.8808C72.3598 13.7975 71.7482 14.708 71.2965 15.6113L74.8743 17.4001ZM76.2205 15.3856C76.6902 14.7962 77.3678 14.2403 78.3196 13.748L76.4819 10.1952C75.1269 10.896 73.9749 11.7852 73.0923 12.8928L76.2205 15.3856ZM78.3356 13.7397C79.1139 13.3281 80.2365 13.0568 81.8155 13.0568V9.05682C79.815 9.05682 77.9944 9.39536 76.4659 10.2035L78.3356 13.7397ZM81.8155 13.0568C83.815 13.0568 85.5668 13.5621 87.1253 14.5538L89.2728 11.1792C87.0396 9.75801 84.5357 9.05682 81.8155 9.05682V13.0568ZM87.139 14.5625C88.6768 15.5236 89.9507 16.9779 90.9263 19.0336L94.54 17.3186C93.2883 14.6812 91.5395 12.5958 89.259 11.1705L87.139 14.5625ZM90.9322 19.0459C91.894 21.0375 92.4235 23.5848 92.4235 26.767H96.4235C96.4235 23.1614 95.826 19.9814 94.5341 17.3064L90.9322 19.0459ZM92.4235 26.767C92.4235 29.9107 91.9069 32.4543 90.9621 34.4691L94.5837 36.1673C95.8397 33.4889 96.4235 30.3317 96.4235 26.767H92.4235ZM90.9621 34.4691C89.9964 36.5284 88.7279 38.0096 87.1882 39.0109L89.369 42.3641C91.621 40.8995 93.3486 38.8011 94.5837 36.1673L90.9621 34.4691ZM87.1882 39.0109C85.6371 40.0197 83.8727 40.5369 81.8354 40.5369V44.5369C84.5973 44.5369 87.1284 43.8212 89.369 42.3641L87.1882 39.0109ZM81.8354 40.5369C80.2934 40.5369 79.1754 40.278 78.3829 39.8772L76.5777 43.4467C78.092 44.2125 79.8774 44.5369 81.8354 44.5369V40.5369ZM78.3829 39.8772C77.4203 39.3903 76.7172 38.8403 76.2164 38.2544L73.1759 40.8535C74.0805 41.9116 75.2335 42.7668 76.5777 43.4467L78.3829 39.8772ZM76.2386 38.2808C75.6145 37.5247 75.1649 36.8539 74.8614 36.2678L71.3094 38.1072C71.7748 39.0059 72.3991 39.9128 73.1537 40.8271L76.2386 38.2808ZM73.0854 35.1875H72.7871V39.1875H73.0854V35.1875ZM70.7871 37.1875V53.4545H74.7871V37.1875H70.7871ZM72.7871 51.4545H65.5882V55.4545H72.7871V51.4545ZM70.6479 26.7273C70.6479 28.8858 70.9516 30.8629 71.6105 32.6199L75.3558 31.2154C74.901 30.0026 74.6479 28.5195 74.6479 26.7273H70.6479ZM71.616 32.6345C72.292 34.3951 73.3012 35.8739 74.6918 36.969L77.1665 33.8265C76.4359 33.2511 75.8144 32.4098 75.3502 31.2008L71.616 32.6345ZM74.7135 36.9859C76.1803 38.1086 77.9216 38.6307 79.8269 38.6307V34.6307C78.6829 34.6307 77.8257 34.3308 77.1448 33.8096L74.7135 36.9859ZM79.8269 38.6307C81.7914 38.6307 83.5814 38.0986 85.064 36.9272L82.5841 33.7887C81.9189 34.3143 81.0442 34.6307 79.8269 34.6307V38.6307ZM85.0758 36.9178C86.4742 35.7956 87.4783 34.3011 88.1283 32.5256L84.3721 31.1505C83.9349 32.3447 83.3216 33.1968 82.5723 33.7981L85.0758 36.9178ZM88.1249 32.5349C88.7789 30.7751 89.0854 28.8291 89.0854 26.7273H85.0854C85.0854 28.4436 84.835 29.9048 84.3755 31.1413L88.1249 32.5349ZM89.0854 26.7273C89.0854 24.6428 88.7868 22.7175 88.1462 20.9832L84.3939 22.3691C84.8405 23.578 85.0854 25.0201 85.0854 26.7273H89.0854ZM88.1462 20.9832C87.4935 19.2163 86.4829 17.7348 85.0718 16.6372L82.616 19.7946C83.3526 20.3675 83.9594 21.1928 84.3939 22.3691L88.1462 20.9832ZM85.0718 16.6372C83.5867 15.4821 81.793 14.9631 79.8269 14.9631V18.9631C81.0691 18.9631 81.9534 19.2792 82.616 19.7946L85.0718 16.6372ZM79.8269 14.9631C77.9202 14.9631 76.1755 15.4719 74.7061 16.5785L77.1124 19.7738C77.7908 19.2629 78.6578 18.9631 79.8269 18.9631V14.9631ZM74.7061 16.5785C73.2859 17.648 72.2638 19.1112 71.5948 20.8633L75.3317 22.2901C75.7763 21.1255 76.3849 20.3217 77.1124 19.7738L74.7061 16.5785ZM71.5892 20.8782C70.9433 22.6111 70.6479 24.5748 70.6479 26.7273H74.6479C74.6479 24.929 74.8961 23.459 75.3373 22.2752L71.5892 20.8782ZM146.438 15.0142V17.0142H148.725L148.42 14.7476L146.438 15.0142ZM139 15.0142L137.03 15.3569L137.318 17.0142H139V15.0142ZM137.827 11.7727L136.11 12.7982L136.116 12.8088L137.827 11.7727ZM135.699 9.34659L136.93 7.77054L136.93 7.77054L135.699 9.34659ZM132.796 7.85511L132.185 9.75942L132.199 9.7639L132.213 9.76818L132.796 7.85511ZM123.429 9.00852L124.512 10.6905L124.521 10.6845L123.429 9.00852ZM119.412 13.8608L121.232 14.691L121.234 14.6867L119.412 13.8608ZM119.412 29.5114L117.591 30.3373L117.594 30.3441L117.597 30.3509L119.412 29.5114ZM123.429 34.3239L122.35 36.0079L122.358 36.0128L122.366 36.0176L123.429 34.3239ZM132.716 35.4574L133.291 37.373L133.299 37.3708L133.306 37.3684L132.716 35.4574ZM135.6 34.0057L134.412 32.3968L134.406 32.4012L134.4 32.4057L135.6 34.0057ZM137.767 31.6591L136.085 30.5776L136.08 30.5861L136.074 30.5947L137.767 31.6591ZM139 28.4773L139.011 26.4773L137.344 26.4684L137.035 28.1061L139 28.4773ZM146.438 28.517L148.417 28.8018L148.744 26.5294L146.449 26.5171L146.438 28.517ZM144.628 33.9659L142.873 33.0063L142.868 33.0169L144.628 33.9659ZM141.029 38.4602L142.338 39.9721L142.346 39.9654L141.029 38.4602ZM135.819 41.483L136.496 43.3648L136.507 43.3607L135.819 41.483ZM119.611 40.071L120.627 38.3482L119.611 40.071ZM112.969 32.892L111.192 33.8105L111.192 33.8105L112.969 32.892ZM112.989 10.3807L114.761 11.3081L114.763 11.305L112.989 10.3807ZM119.651 3.2017L118.635 1.47888L118.635 1.47888L119.651 3.2017ZM135.52 1.67045L136.141 -0.230758L136.141 -0.230759L135.52 1.67045ZM140.73 4.47443L139.473 6.02957L139.481 6.03617L140.73 4.47443ZM144.489 8.96875L142.738 9.9356L142.743 9.94339L142.747 9.95114L144.489 8.96875ZM146.438 13.0142H139V17.0142H146.438V13.0142ZM140.971 14.6715C140.721 13.237 140.252 11.9159 139.538 10.7367L136.116 12.8088C136.542 13.5122 136.855 14.352 137.03 15.3569L140.971 14.6715ZM139.544 10.7472C138.852 9.5878 137.98 8.59035 136.93 7.77054L134.468 10.9226C135.116 11.4286 135.662 12.0486 136.11 12.7982L139.544 10.7472ZM136.93 7.77054C135.878 6.94823 134.688 6.34107 133.379 5.94205L132.213 9.76818C133.078 10.032 133.824 10.4192 134.468 10.9226L136.93 7.77054ZM133.407 5.95081C132.116 5.53642 130.748 5.33807 129.316 5.33807V9.33807C130.376 9.33807 131.328 9.48441 132.185 9.75942L133.407 5.95081ZM129.316 5.33807C126.748 5.33807 124.401 5.98948 122.338 7.33252L124.521 10.6845C125.879 9.80029 127.455 9.33807 129.316 9.33807V5.33807ZM122.347 7.32659C120.266 8.66551 118.693 10.6046 117.591 13.0349L121.234 14.6867C122.067 12.848 123.172 11.5523 124.511 10.6905L122.347 7.32659ZM117.593 13.0306C116.475 15.4806 115.961 18.3732 115.961 21.6364H119.961C119.961 18.7745 120.414 16.4834 121.232 14.691L117.593 13.0306ZM115.961 21.6364C115.961 24.9475 116.473 27.8728 117.591 30.3373L121.234 28.6855C120.416 26.881 119.961 24.5562 119.961 21.6364H115.961ZM117.597 30.3509C118.712 32.7617 120.284 34.6841 122.35 36.0079L124.508 32.6398C123.181 31.7894 122.075 30.5035 121.228 28.6718L117.597 30.3509ZM122.366 36.0176C124.423 37.3095 126.754 37.9347 129.296 37.9347V33.9347C127.436 33.9347 125.856 33.486 124.493 32.6301L122.366 36.0176ZM129.296 37.9347C130.691 37.9347 132.026 37.7525 133.291 37.373L132.142 33.5417C131.285 33.7986 130.34 33.9347 129.296 33.9347V37.9347ZM133.306 37.3684C134.587 36.9732 135.757 36.3881 136.8 35.6057L134.4 32.4057C133.746 32.896 132.994 33.2787 132.126 33.5463L133.306 37.3684ZM136.788 35.6145C137.855 34.8263 138.748 33.8579 139.461 32.7234L136.074 30.5947C135.621 31.3163 135.068 31.9123 134.412 32.3968L136.788 35.6145ZM139.45 32.7406C140.199 31.5754 140.697 30.2689 140.966 28.8485L137.035 28.1061C136.853 29.072 136.529 29.8867 136.085 30.5776L139.45 32.7406ZM138.99 30.4772L146.427 30.517L146.449 26.5171L139.011 26.4773L138.99 30.4772ZM144.458 28.2323C144.213 29.934 143.685 31.5214 142.873 33.0063L146.383 34.9255C147.427 33.0165 148.105 30.9713 148.417 28.8018L144.458 28.2323ZM142.868 33.0169C142.069 34.4985 141.021 35.8095 139.712 36.9551L142.346 39.9654C144.006 38.5125 145.358 36.8273 146.389 34.9149L142.868 33.0169ZM139.719 36.9484C138.432 38.0638 136.909 38.9529 135.13 39.6052L136.507 43.3607C138.705 42.5547 140.656 41.4286 142.338 39.9721L139.719 36.9484ZM135.141 39.6012C133.399 40.2282 131.425 40.5568 129.196 40.5568V44.5568C131.82 44.5568 134.26 44.1695 136.496 43.3647L135.141 39.6012ZM129.196 40.5568C125.938 40.5568 123.1 39.8066 120.627 38.3482L118.595 41.7938C121.743 43.6498 125.295 44.5568 129.196 44.5568V40.5568ZM120.627 38.3482C118.166 36.8974 116.205 34.7957 114.746 31.9736L111.192 33.8105C112.968 37.246 115.435 39.9302 118.595 41.7938L120.627 38.3482ZM114.746 31.9736C113.306 29.1893 112.543 25.7677 112.543 21.6364H108.543C108.543 26.255 109.397 30.3372 111.192 33.8105L114.746 31.9736ZM112.543 21.6364C112.543 17.4926 113.313 14.0751 114.761 11.3081L111.217 9.45323C109.404 12.9173 108.543 17.0036 108.543 21.6364H112.543ZM114.763 11.305C116.235 8.47999 118.205 6.37623 120.667 4.92452L118.635 1.47888C115.476 3.34157 113.004 6.0238 111.215 9.45632L114.763 11.305ZM120.667 4.92453C123.142 3.46476 125.968 2.71591 129.196 2.71591V-1.28409C125.319 -1.28409 121.781 -0.375749 118.635 1.47888L120.667 4.92453ZM129.196 2.71591C131.275 2.71591 133.171 3.00728 134.899 3.57166L136.141 -0.230759C133.972 -0.939102 131.652 -1.28409 129.196 -1.28409V2.71591ZM134.899 3.57166C136.627 4.1359 138.146 4.9567 139.473 6.02955L141.988 2.91931C140.265 1.52625 138.311 0.477731 136.141 -0.230758L134.899 3.57166ZM139.481 6.03617C140.793 7.08586 141.879 8.37908 142.738 9.9356L146.24 8.0019C145.137 6.00539 143.717 4.3024 141.98 2.91269L139.481 6.03617ZM142.747 9.95114C143.601 11.4663 144.18 13.2329 144.456 15.2808L148.42 14.7476C148.086 12.2614 147.365 9.99771 146.231 7.98636L142.747 9.95114ZM151.266 42H149.266V44H151.266V42ZM151.266 11.4545V9.45454H149.266V11.4545H151.266ZM158.246 11.4545H160.246V9.45454H158.246V11.4545ZM158.246 16.5455H156.246V18.5455H158.246V16.5455ZM158.564 16.5455V18.5455H160.03L160.472 17.1477L158.564 16.5455ZM161.428 12.4688L162.581 14.1027L162.584 14.1005L161.428 12.4688ZM167.434 11.0767L167.272 13.0702L167.3 13.0724L167.329 13.0739L167.434 11.0767ZM168.687 11.2159H170.687V9.5763L169.079 9.25475L168.687 11.2159ZM168.687 17.8381L168.029 19.7271L170.687 20.6512V17.8381H168.687ZM167.235 17.5597L166.952 19.5396L166.974 19.5427L166.997 19.5454L167.235 17.5597ZM161.806 18.2756L162.754 20.0365L162.762 20.0322L161.806 18.2756ZM158.465 42V44H160.465V42H158.465ZM153.266 42V11.4545H149.266V42H153.266ZM151.266 13.4545H158.246V9.45454H151.266V13.4545ZM156.246 11.4545V16.5455H160.246V11.4545H156.246ZM158.246 18.5455H158.564V14.5455H158.246V18.5455ZM160.472 17.1477C160.913 15.7501 161.628 14.7756 162.581 14.1027L160.275 10.8348C158.523 12.071 157.329 13.8143 156.657 15.9432L160.472 17.1477ZM162.584 14.1005C163.596 13.3836 164.746 13.017 166.101 13.017V9.01704C163.957 9.01704 161.991 9.61827 160.272 10.837L162.584 14.1005ZM166.101 13.017C166.434 13.017 166.823 13.0338 167.272 13.0702L167.595 9.08324C167.063 9.04009 166.564 9.01704 166.101 9.01704V13.017ZM167.329 13.0739C167.778 13.0976 168.091 13.1365 168.294 13.1771L169.079 9.25475C168.619 9.16274 168.097 9.10885 167.539 9.07947L167.329 13.0739ZM166.687 11.2159V17.8381H170.687V11.2159H166.687ZM169.344 15.9491C168.824 15.7684 168.161 15.6565 167.473 15.5739L166.997 19.5454C167.634 19.6219 167.939 19.6956 168.029 19.7271L169.344 15.9491ZM167.518 15.5798C166.781 15.4746 166.057 15.4205 165.346 15.4205V19.4205C165.854 19.4205 166.389 19.4591 166.952 19.5396L167.518 15.5798ZM165.346 15.4205C163.733 15.4205 162.219 15.7735 160.85 16.5189L162.762 20.0322C163.487 19.6375 164.333 19.4205 165.346 19.4205V15.4205ZM160.858 16.5146C159.511 17.2397 158.429 18.2663 157.645 19.5733L161.075 21.6313C161.484 20.9496 162.032 20.4251 162.754 20.0365L160.858 16.5146ZM157.645 19.5733C156.84 20.9147 156.465 22.4257 156.465 24.0426H160.465C160.465 23.0611 160.686 22.2785 161.075 21.6313L157.645 19.5733ZM156.465 24.0426V42H160.465V24.0426H156.465ZM158.465 40H151.266V44H158.465V40ZM176.189 40.6875L175.185 42.417L175.197 42.424L176.189 40.6875ZM171.079 35.2386L169.294 36.1411L169.296 36.1451L171.079 35.2386ZM171.079 18.6335L169.294 17.7312L169.292 17.7351L171.079 18.6335ZM176.13 13.0653L177.176 14.7701L177.183 14.7654L176.13 13.0653ZM189.076 11.9716L188.39 13.8503L188.399 13.8536L188.408 13.8567L189.076 11.9716ZM193.53 14.7557L192.131 16.1846L192.138 16.1917L193.53 14.7557ZM196.593 19.5682L194.724 20.2802L194.725 20.2844L196.593 19.5682ZM197.706 28.696V30.696H199.706V28.696H197.706ZM172.67 28.696H170.67V30.696H172.67V28.696ZM172.67 23.8438V21.8438H170.67V23.8438H172.67ZM190.806 23.8438V25.8438H192.825L192.806 23.8245L190.806 23.8438ZM189.911 20.1648L188.149 21.1104L188.154 21.1194L189.911 20.1648ZM187.465 17.5994L186.433 19.3125L186.442 19.3182L187.465 17.5994ZM179.968 17.7386L181.035 19.4301L181.042 19.4256L181.049 19.421L179.968 17.7386ZM177.363 20.5227L175.603 19.5721L175.599 19.5794L177.363 20.5227ZM176.428 24.2812L174.428 24.2618L174.428 24.2715V24.2812H176.428ZM177.402 33.0909L175.621 34.0002L175.625 34.0077L177.402 33.0909ZM180.127 35.9943L179.124 37.7247L179.131 37.729L179.139 37.7332L180.127 35.9943ZM187.067 36.5511L187.717 38.4425L187.731 38.438L187.744 38.4333L187.067 36.5511ZM189.275 35.2188L187.908 33.7587L189.275 35.2188ZM190.687 33.0511L190.91 31.0637L189.353 30.8886L188.81 32.3584L190.687 33.0511ZM197.408 33.8068L199.353 34.2714L199.879 32.072L197.632 31.8193L197.408 33.8068ZM194.982 38.4602L193.495 37.1223L193.495 37.1231L194.982 38.4602ZM190.448 41.5227L191.172 43.387L191.184 43.3824L190.448 41.5227ZM184.124 40.5966C181.342 40.5966 179.053 40.0204 177.182 38.951L175.197 42.424C177.78 43.9001 180.781 44.5966 184.124 44.5966V40.5966ZM177.194 38.9581C175.323 37.8714 173.885 36.3454 172.861 34.3321L169.296 36.1451C170.659 38.8251 172.628 40.9317 175.185 42.4169L177.194 38.9581ZM172.863 34.3362C171.838 32.3085 171.289 29.8523 171.289 26.9062H167.289C167.289 30.3503 167.933 33.449 169.294 36.1411L172.863 34.3362ZM171.289 26.9062C171.289 24.0194 171.836 21.5797 172.865 19.5319L169.292 17.7351C167.935 20.4336 167.289 23.509 167.289 26.9062H171.289ZM172.864 19.5359C173.912 17.4614 175.348 15.8912 177.176 14.7701L175.084 11.3606C172.589 12.891 170.658 15.033 169.294 17.7312L172.864 19.5359ZM177.183 14.7654C178.983 13.65 181.146 13.0568 183.746 13.0568V9.05682C180.513 9.05682 177.598 9.80265 175.076 11.3653L177.183 14.7654ZM183.746 13.0568C185.409 13.0568 186.952 13.3253 188.39 13.8503L189.762 10.0929C187.859 9.39818 185.849 9.05682 183.746 9.05682V13.0568ZM188.408 13.8567C189.815 14.3555 191.051 15.1269 192.131 16.1845L194.93 13.3268C193.438 11.8655 191.704 10.7809 189.744 10.0864L188.408 13.8567ZM192.138 16.1917C193.198 17.2188 194.07 18.563 194.724 20.2802L198.462 18.8562C197.631 16.6756 196.461 14.8115 194.922 13.3197L192.138 16.1917ZM194.725 20.2844C195.359 21.9355 195.706 23.9875 195.706 26.4886H199.706C199.706 23.6338 199.312 21.0721 198.46 18.8519L194.725 20.2844ZM195.706 26.4886V28.696H199.706V26.4886H195.706ZM197.706 26.696H172.67V30.696H197.706V26.696ZM174.67 28.696V23.8438H170.67V28.696H174.67ZM172.67 25.8438H190.806V21.8438H172.67V25.8438ZM192.806 23.8245C192.79 22.1613 192.427 20.6064 191.668 19.2101L188.154 21.1194C188.562 21.8709 188.795 22.7687 188.806 23.863L192.806 23.8245ZM191.673 19.2191C190.92 17.8161 189.851 16.6919 188.488 15.8806L186.442 19.3182C187.173 19.7532 187.735 20.3392 188.149 21.1104L191.673 19.2191ZM188.497 15.8864C187.109 15.0501 185.536 14.6648 183.846 14.6648V18.6648C184.913 18.6648 185.753 18.9026 186.433 19.3125L188.497 15.8864ZM183.846 14.6648C182.035 14.6648 180.358 15.1103 178.886 16.0563L181.049 19.421C181.805 18.9352 182.713 18.6648 183.846 18.6648V14.6648ZM178.901 16.0472C177.498 16.9323 176.39 18.115 175.603 19.5721L179.122 21.4733C179.581 20.6237 180.211 19.9502 181.035 19.4301L178.901 16.0472ZM175.599 19.5794C174.829 21.02 174.444 22.5924 174.428 24.2618L178.428 24.3007C178.438 23.239 178.677 22.3058 179.126 21.466L175.599 19.5794ZM174.428 24.2812V28.517H178.428V24.2812H174.428ZM174.428 28.517C174.428 30.5343 174.797 32.3857 175.621 34.0001L179.184 32.1817C178.709 31.2507 178.428 30.0528 178.428 28.517H174.428ZM175.625 34.0077C176.44 35.5887 177.61 36.847 179.124 37.7247L181.13 34.2639C180.311 33.7894 179.664 33.1121 179.18 32.1741L175.625 34.0077ZM179.139 37.7332C180.653 38.5937 182.371 38.9886 184.224 38.9886V34.9886C182.948 34.9886 181.934 34.7206 181.115 34.2554L179.139 37.7332ZM184.224 38.9886C185.456 38.9886 186.628 38.817 187.717 38.4425L186.417 34.6598C185.81 34.8686 185.086 34.9886 184.224 34.9886V38.9886ZM187.744 38.4333C188.834 38.0415 189.808 37.4588 190.642 36.6788L187.908 33.7587C187.495 34.1454 186.998 34.451 186.391 34.669L187.744 38.4333ZM190.642 36.6788C191.509 35.8668 192.145 34.8748 192.563 33.7439L188.81 32.3584C188.592 32.951 188.287 33.404 187.908 33.7587L190.642 36.6788ZM190.463 35.0386L197.185 35.7943L197.632 31.8193L190.91 31.0637L190.463 35.0386ZM195.463 33.3423C195.114 34.8021 194.46 36.0509 193.495 37.1223L196.469 39.7982C197.891 38.218 198.854 36.3646 199.353 34.2714L195.463 33.3423ZM193.495 37.1231C192.546 38.1788 191.303 39.0335 189.712 39.663L191.184 43.3824C193.278 42.5536 195.059 41.3667 196.469 39.7973L193.495 37.1231ZM189.724 39.6585C188.153 40.2687 186.298 40.5966 184.124 40.5966V44.5966C186.697 44.5966 189.057 44.2086 191.172 43.387L189.724 39.6585ZM205.746 41.5824L204.915 43.4015L204.925 43.4058L204.934 43.41L205.746 41.5824ZM202.087 38.4801L200.411 39.5707L200.418 39.582L202.087 38.4801ZM201.709 29.1534L199.968 28.17L199.968 28.17L201.709 29.1534ZM204.315 26.4489L203.267 24.7448L203.267 24.7448L204.315 26.4489ZM208.033 24.9176L208.518 26.8579L208.531 26.8546L208.033 24.9176ZM212.349 24.142L212.142 22.1527L212.136 22.1534L212.349 24.142ZM216.704 23.6449L216.963 25.628L216.975 25.6264L216.987 25.6248L216.704 23.6449ZM219.13 22.929L220.198 24.62L220.209 24.6127L219.13 22.929ZM218.573 17.7983L219.931 16.3304L219.931 16.3304L218.573 17.7983ZM210.539 17.7188L209.346 16.1138L209.336 16.1212L210.539 17.7188ZM208.471 20.4432L208.19 22.4233L209.828 22.656L210.363 21.09L208.471 20.4432ZM201.749 19.4886L199.826 18.9392L199.196 21.1461L201.468 21.4688L201.749 19.4886ZM204.374 14.8352L205.804 16.2342L205.811 16.2266L204.374 14.8352ZM208.849 12.0114L209.515 13.8971L209.528 13.8926L208.849 12.0114ZM223.087 13.2841L221.986 14.9538L221.993 14.9581L221.999 14.9622L223.087 13.2841ZM225.991 16.4858L224.23 17.435L224.234 17.4417L224.237 17.4483L225.991 16.4858ZM227.104 42V44H229.104V42H227.104ZM220.184 42H218.184V44H220.184V42ZM220.184 37.804H222.184V35.804H220.184V37.804ZM219.945 37.804V35.804H218.726L218.168 36.8874L219.945 37.804ZM218.096 40.1903L219.46 41.6533L219.46 41.6525L218.096 40.1903ZM215.133 41.9602L215.828 43.8355L215.839 43.8312L215.133 41.9602ZM216.604 36.4716L217.551 38.2332L217.56 38.2287L217.568 38.224L216.604 36.4716ZM219.05 34.1648L217.344 33.1219L217.338 33.1306L217.333 33.1393L219.05 34.1648ZM219.925 27.4432H221.925V23.2052L218.654 25.8993L219.925 27.4432ZM218.772 27.9602L218.21 26.0407L218.197 26.0446L218.772 27.9602ZM216.982 28.3778L217.336 30.3462L217.336 30.3462L216.982 28.3778ZM213.323 28.9347L213.592 30.9165L213.598 30.9156L213.323 28.9347ZM210.44 29.6506L209.712 27.7877L209.712 27.7877L210.44 29.6506ZM208.431 31.0426L209.962 32.3298L209.969 32.3214L209.976 32.3128L208.431 31.0426ZM209.147 36.3125L208.001 37.952L208.001 37.952L209.147 36.3125ZM210.976 40.6165C209.282 40.6165 207.821 40.3156 206.559 39.7548L204.934 43.41C206.774 44.228 208.8 44.6165 210.976 44.6165V40.6165ZM206.577 39.7633C205.369 39.211 204.444 38.4201 203.756 37.3782L200.418 39.582C201.533 41.2712 203.048 42.5485 204.915 43.4015L206.577 39.7633ZM203.764 37.3896C203.13 36.4159 202.755 35.1327 202.755 33.429H198.755C198.755 35.729 199.268 37.8132 200.411 39.5707L203.764 37.3896ZM202.755 33.429C202.755 31.9397 203.031 30.8803 203.451 30.1368L199.968 28.17C199.115 29.6803 198.755 31.4712 198.755 33.429H202.755ZM203.451 30.1368C203.921 29.3045 204.551 28.6512 205.362 28.1529L203.267 24.7448C201.878 25.5988 200.771 26.7485 199.968 28.17L203.451 30.1368ZM205.362 28.1529C206.271 27.5939 207.318 27.158 208.518 26.8579L207.548 22.9773C205.991 23.3667 204.559 23.9515 203.267 24.7448L205.362 28.1529ZM208.531 26.8546C209.826 26.5216 211.169 26.2799 212.562 26.1307L212.136 22.1534C210.558 22.3224 209.024 22.5977 207.535 22.9806L208.531 26.8546ZM212.555 26.1314C214.353 25.9449 215.825 25.7771 216.963 25.628L216.444 21.6618C215.355 21.8044 213.923 21.968 212.142 22.1527L212.555 26.1314ZM216.987 25.6248C218.175 25.455 219.328 25.1696 220.198 24.62L218.062 21.238C217.925 21.3247 217.46 21.5166 216.421 21.665L216.987 25.6248ZM220.209 24.6127C221.378 23.8633 221.905 22.6699 221.905 21.3977H217.905C217.905 21.4921 217.889 21.4705 217.927 21.3939C217.946 21.3573 217.971 21.3218 217.998 21.2917C218.025 21.2623 218.046 21.248 218.051 21.2452L220.209 24.6127ZM221.905 21.3977V21.2784H217.905V21.3977H221.905ZM221.905 21.2784C221.905 19.3652 221.323 17.6177 219.931 16.3304L217.215 19.2662C217.6 19.6228 217.905 20.1954 217.905 21.2784H221.905ZM219.931 16.3304C218.553 15.0545 216.716 14.5653 214.735 14.5653V18.5653C216.095 18.5653 216.817 18.8981 217.215 19.2662L219.931 16.3304ZM214.735 14.5653C212.697 14.5653 210.832 15.0089 209.346 16.1138L211.732 19.3237C212.315 18.8908 213.246 18.5653 214.735 18.5653V14.5653ZM209.336 16.1212C208.046 17.0927 207.085 18.3142 206.578 19.7964L210.363 21.09C210.573 20.4775 210.99 19.8827 211.742 19.3163L209.336 16.1212ZM208.752 18.463L202.03 17.5085L201.468 21.4688L208.19 22.4233L208.752 18.463ZM203.672 20.0381C204.121 18.4669 204.841 17.218 205.804 16.2342L202.945 13.4363C201.468 14.9449 200.438 16.7982 199.826 18.9392L203.672 20.0381ZM205.811 16.2266C206.801 15.2039 208.023 14.4242 209.515 13.8971L208.182 10.1256C206.147 10.8447 204.386 11.9476 202.937 13.4439L205.811 16.2266ZM209.528 13.8926C211.045 13.3449 212.761 13.0568 214.695 13.0568V9.05682C212.361 9.05682 210.179 9.4051 208.17 10.1301L209.528 13.8926ZM214.695 13.0568C216.009 13.0568 217.32 13.2105 218.63 13.5202L219.55 9.62749C217.944 9.24782 216.325 9.05682 214.695 9.05682V13.0568ZM218.63 13.5202C219.869 13.813 220.983 14.2922 221.986 14.9538L224.188 11.6144C222.779 10.6851 221.228 10.0241 219.55 9.62749L218.63 13.5202ZM221.999 14.9622C222.905 15.5493 223.649 16.3574 224.23 17.435L227.751 15.5366C226.874 13.9096 225.683 12.5833 224.175 11.6059L221.999 14.9622ZM224.237 17.4483C224.775 18.4272 225.104 19.7624 225.104 21.5568H229.104C229.104 19.2944 228.691 17.2489 227.744 15.5233L224.237 17.4483ZM225.104 21.5568V42H229.104V21.5568H225.104ZM227.104 40H220.184V44H227.104V40ZM222.184 42V37.804H218.184V42H222.184ZM220.184 35.804H219.945V39.804H220.184V35.804ZM218.168 36.8874C217.849 37.5053 217.382 38.1209 216.731 38.7282L219.46 41.6525C220.401 40.7749 221.166 39.7996 221.723 38.7206L218.168 36.8874ZM216.732 38.7274C216.173 39.2484 215.422 39.7131 214.426 40.0893L215.839 43.8312C217.23 43.3058 218.454 42.5906 219.46 41.6533L216.732 38.7274ZM214.437 40.085C213.53 40.4214 212.39 40.6165 210.976 40.6165V44.6165C212.745 44.6165 214.375 44.374 215.828 43.8355L214.437 40.085ZM212.846 39.3267C214.556 39.3267 216.147 38.9882 217.551 38.2332L215.657 34.7099C214.941 35.0951 214.026 35.3267 212.846 35.3267V39.3267ZM217.568 38.224C218.911 37.4852 219.999 36.4764 220.767 35.1903L217.333 33.1393C216.961 33.7622 216.418 34.2913 215.64 34.7192L217.568 38.224ZM220.757 35.2077C221.534 33.9367 221.925 32.5347 221.925 31.0426H217.925C217.925 31.8044 217.734 32.4838 217.344 33.1219L220.757 35.2077ZM221.925 31.0426V27.4432H217.925V31.0426H221.925ZM218.654 25.8993C218.725 25.8406 218.744 25.8442 218.65 25.8866C218.563 25.9253 218.422 25.9787 218.21 26.0408L219.334 29.8797C219.939 29.7026 220.647 29.4396 221.197 28.987L218.654 25.8993ZM218.197 26.0446C217.753 26.1779 217.232 26.3008 216.628 26.4095L217.336 30.3462C218.058 30.2162 218.73 30.0607 219.347 29.8759L218.197 26.0446ZM216.628 26.4095C215.988 26.5246 215.356 26.6268 214.731 26.7161L215.296 30.6759C215.97 30.5796 216.65 30.4697 217.336 30.3462L216.628 26.4095ZM214.731 26.7161C214.083 26.8087 213.522 26.8878 213.048 26.9537L213.598 30.9156C214.079 30.8489 214.645 30.769 215.296 30.6759L214.731 26.7161ZM213.054 26.9528C211.852 27.1161 210.733 27.3889 209.712 27.7877L211.167 31.5135C211.843 31.2494 212.647 31.0449 213.592 30.9165L213.054 26.9528ZM209.712 27.7877C208.602 28.2211 207.63 28.8678 206.886 29.7724L209.976 32.3128C210.213 32.0242 210.58 31.7429 211.167 31.5135L209.712 27.7877ZM206.9 29.7554C206.045 30.773 205.695 32.0172 205.695 33.3097H209.695C209.695 32.7461 209.836 32.4789 209.962 32.3298L206.9 29.7554ZM205.695 33.3097C205.695 35.1953 206.426 36.8513 208.001 37.952L210.292 34.673C209.932 34.4214 209.695 34.0755 209.695 33.3097H205.695ZM208.001 37.952C209.386 38.919 211.048 39.3267 212.846 39.3267V35.3267C211.647 35.3267 210.844 35.0583 210.292 34.673L208.001 37.952ZM247.986 11.4545H249.986V9.45454H247.986V11.4545ZM247.986 17.0227V19.0227H249.986V17.0227H247.986ZM230.426 17.0227H228.426V19.0227H230.426V17.0227ZM230.426 11.4545V9.45454H228.426V11.4545H230.426ZM234.761 4.13636V2.13636H232.761V4.13636H234.761ZM241.96 4.13636H243.96V2.13636H241.96V4.13636ZM242.398 35.0398L240.656 36.0224L240.671 36.0491L240.687 36.0754L242.398 35.0398ZM243.591 36.0739L242.883 37.9444L242.883 37.9444L243.591 36.0739ZM246.455 36.2528L246.115 34.2819L246.103 34.284L246.455 36.2528ZM247.33 36.0739L249.285 35.6524L248.842 33.6006L246.814 34.1414L247.33 36.0739ZM248.543 41.7017L249.195 43.5925L250.871 43.0142L250.498 41.2803L248.543 41.7017ZM246.892 42.1392L246.458 40.1868L246.45 40.1886L246.892 42.1392ZM244.307 42.4176L244.255 40.4183L244.248 40.4185L244.307 42.4176ZM239.435 41.6023L238.657 43.4449L238.664 43.4479L238.671 43.4509L239.435 41.6023ZM235.994 38.7784L234.322 39.8757L234.326 39.8818L234.33 39.8878L235.994 38.7784ZM234.761 34.0057L236.761 34.0196V34.0057H234.761ZM245.986 11.4545V17.0227H249.986V11.4545H245.986ZM247.986 15.0227H230.426V19.0227H247.986V15.0227ZM232.426 17.0227V11.4545H228.426V17.0227H232.426ZM230.426 13.4545H247.986V9.45454H230.426V13.4545ZM234.761 6.13636H241.96V2.13636H234.761V6.13636ZM239.96 4.13636V32.8125H243.96V4.13636H239.96ZM239.96 32.8125C239.96 33.9307 240.12 35.0727 240.656 36.0224L244.14 34.0571C244.092 33.9727 243.96 33.6299 243.96 32.8125H239.96ZM240.687 36.0754C241.193 36.9123 241.923 37.5812 242.883 37.9444L244.299 34.2033C244.278 34.1953 244.212 34.1749 244.109 34.0042L240.687 36.0754ZM242.883 37.9444C243.629 38.2265 244.416 38.3523 245.222 38.3523V34.3523C244.834 34.3523 244.534 34.2924 244.299 34.2033L242.883 37.9444ZM245.222 38.3523C245.768 38.3523 246.299 38.3123 246.806 38.2217L246.103 34.284C245.868 34.326 245.576 34.3523 245.222 34.3523V38.3523ZM246.794 38.2238C247.196 38.1546 247.558 38.0829 247.845 38.0063L246.814 34.1414C246.704 34.1709 246.482 34.2185 246.115 34.2819L246.794 38.2238ZM245.374 36.4953L246.587 42.1231L250.498 41.2803L249.285 35.6524L245.374 36.4953ZM247.891 39.811C247.613 39.9068 247.149 40.0334 246.458 40.1868L247.326 44.0916C248.067 43.9269 248.703 43.7618 249.195 43.5925L247.891 39.811ZM246.45 40.1886C245.916 40.3095 245.194 40.3939 244.255 40.4183L244.359 44.4169C245.461 44.3883 246.462 44.2871 247.334 44.0898L246.45 40.1886ZM244.248 40.4185C242.683 40.4645 241.345 40.2274 240.198 39.7536L238.671 43.4509C240.414 44.1703 242.324 44.4768 244.366 44.4167L244.248 40.4185ZM240.212 39.7596C239.118 39.298 238.284 38.6071 237.658 37.669L234.33 39.8878C235.402 41.4952 236.861 42.6868 238.657 43.4449L240.212 39.7596ZM237.666 37.6811C237.097 36.8132 236.75 35.6344 236.761 34.0196L232.761 33.9918C232.746 36.1952 233.221 38.1981 234.322 39.8757L237.666 37.6811ZM236.761 34.0057V4.13636H232.761V34.0057H236.761ZM257.636 40.6278L256.607 42.3428L256.607 42.3428L257.636 40.6278ZM252.546 35.1193L250.761 36.0218L250.765 36.0297L252.546 35.1193ZM252.546 18.554L250.763 17.6476L250.759 17.6556L252.546 18.554ZM257.636 13.0256L258.665 14.7406L258.665 14.7406L257.636 13.0256ZM273.148 13.0256L272.119 14.7406L272.119 14.7406L273.148 13.0256ZM278.219 18.554L276.432 19.4524L276.436 19.4603L278.219 18.554ZM278.219 35.1193L276.438 34.2089L276.434 34.2169L278.219 35.1193ZM273.148 40.6278L272.119 38.9129L272.119 38.9129L273.148 40.6278ZM269.489 35.4972L270.754 37.0459L270.76 37.0413L270.765 37.0367L269.489 35.4972ZM271.915 31.8778L270.033 31.201L270.03 31.2083L270.028 31.2157L271.915 31.8778ZM271.915 21.7557L270.026 22.4127L270.029 22.4226L270.033 22.4325L271.915 21.7557ZM269.489 18.1165L270.765 16.577L270.765 16.577L269.489 18.1165ZM261.296 18.1165L260.028 16.5694L260.019 16.577L261.296 18.1165ZM258.849 21.7557L256.966 21.084L256.962 21.0935L258.849 21.7557ZM258.849 31.8778L256.962 32.54L256.965 32.5474L256.967 32.5547L258.849 31.8778ZM261.296 35.4972L260.019 37.0367L260.029 37.0451L260.039 37.0534L261.296 35.4972ZM265.392 40.5966C262.709 40.5966 260.493 40.0093 258.665 38.9129L256.607 42.3428C259.155 43.8714 262.109 44.5966 265.392 44.5966V40.5966ZM258.665 38.9129C256.812 37.8007 255.369 36.2491 254.326 34.2089L250.765 36.0297C252.135 38.7092 254.086 40.83 256.607 42.3428L258.665 38.9129ZM254.33 34.2169C253.303 32.1859 252.756 29.7485 252.756 26.8466H248.756C248.756 30.2553 249.401 33.333 250.761 36.0218L254.33 34.2169ZM252.756 26.8466C252.756 23.9451 253.303 21.499 254.332 19.4524L250.759 17.6556C249.401 20.3552 248.756 23.4375 248.756 26.8466H252.756ZM254.328 19.4603C255.372 17.4069 256.815 15.851 258.665 14.7406L256.607 11.3106C254.083 12.8251 252.132 14.9548 250.763 17.6476L254.328 19.4603ZM258.665 14.7406C260.493 13.6441 262.709 13.0568 265.392 13.0568V9.05682C262.109 9.05682 259.155 9.78202 256.607 11.3106L258.665 14.7406ZM265.392 13.0568C268.075 13.0568 270.291 13.6441 272.119 14.7406L274.177 11.3106C271.629 9.78202 268.675 9.05682 265.392 9.05682V13.0568ZM272.119 14.7406C273.968 15.8499 275.402 17.4031 276.432 19.4524L280.006 17.6556C278.65 14.9586 276.703 12.8263 274.177 11.3106L272.119 14.7406ZM276.436 19.4603C277.475 21.5051 278.028 23.9483 278.028 26.8466H282.028C282.028 23.4343 281.375 20.3491 280.002 17.6476L276.436 19.4603ZM278.028 26.8466C278.028 29.7453 277.475 32.1798 276.438 34.2089L280 36.0297C281.375 33.3391 282.028 30.2585 282.028 26.8466H278.028ZM276.434 34.2169C275.404 36.253 273.971 37.8018 272.119 38.9129L274.177 42.3428C276.7 40.8289 278.647 38.7054 280.004 36.0218L276.434 34.2169ZM272.119 38.9129C270.291 40.0093 268.075 40.5966 265.392 40.5966V44.5966C268.675 44.5966 271.629 43.8714 274.177 42.3428L272.119 38.9129ZM265.432 38.8295C267.437 38.8295 269.257 38.2695 270.754 37.0459L268.223 33.9484C267.547 34.5013 266.662 34.8295 265.432 34.8295V38.8295ZM270.765 37.0367C272.168 35.8737 273.168 34.3469 273.802 32.54L270.028 31.2157C269.601 32.4315 268.984 33.3176 268.212 33.9576L270.765 37.0367ZM273.797 32.5547C274.43 30.7953 274.73 28.8782 274.73 26.8267H270.73C270.73 28.4873 270.487 29.9376 270.033 31.201L273.797 32.5547ZM274.73 26.8267C274.73 24.7637 274.43 22.8397 273.797 21.0788L270.033 22.4325C270.487 23.6944 270.73 25.151 270.73 26.8267H274.73ZM273.804 21.0986C273.171 19.2798 272.172 17.7431 270.765 16.577L268.212 19.656C268.98 20.2929 269.598 21.1823 270.026 22.4127L273.804 21.0986ZM270.765 16.577C269.268 15.3352 267.444 14.7642 265.432 14.7642V18.7642C266.655 18.7642 267.535 19.0948 268.212 19.656L270.765 16.577ZM265.432 14.7642C263.393 14.7642 261.543 15.328 260.028 16.5694L262.563 19.6636C263.249 19.1019 264.157 18.7642 265.432 18.7642V14.7642ZM260.019 16.577C258.617 17.7398 257.612 19.2712 256.966 21.084L260.733 22.4273C261.174 21.191 261.8 20.2962 262.572 19.656L260.019 16.577ZM256.962 21.0935C256.346 22.8499 256.054 24.7688 256.054 26.8267H260.054C260.054 25.146 260.292 23.6842 260.737 22.4179L256.962 21.0935ZM256.054 26.8267C256.054 28.8731 256.347 30.7851 256.962 32.54L260.737 31.2157C260.292 29.9479 260.054 28.4924 260.054 26.8267H256.054ZM256.967 32.5547C257.615 34.3555 258.62 35.8769 260.019 37.0367L262.572 33.9576C261.796 33.3143 261.171 32.4229 260.731 31.201L256.967 32.5547ZM260.039 37.0534C261.554 38.2765 263.4 38.8295 265.432 38.8295V34.8295C264.15 34.8295 263.237 34.4944 262.552 33.9409L260.039 37.0534ZM284.529 42H282.529V44H284.529V42ZM284.529 11.4545V9.45454H282.529V11.4545H284.529ZM291.509 11.4545H293.509V9.45454H291.509V11.4545ZM291.509 16.5455H289.509V18.5455H291.509V16.5455ZM291.827 16.5455V18.5455H293.293L293.734 17.1477L291.827 16.5455ZM294.69 12.4688L295.844 14.1027L295.847 14.1005L294.69 12.4688ZM300.696 11.0767L300.535 13.0702L300.563 13.0724L300.591 13.0739L300.696 11.0767ZM301.949 11.2159H303.949V9.5763L302.341 9.25475L301.949 11.2159ZM301.949 17.8381L301.292 19.7271L303.949 20.6512V17.8381H301.949ZM300.497 17.5597L300.214 19.5396L300.237 19.5427L300.259 19.5454L300.497 17.5597ZM295.068 18.2756L296.017 20.0365L296.024 20.0322L295.068 18.2756ZM291.727 42V44H293.727V42H291.727ZM286.529 42V11.4545H282.529V42H286.529ZM284.529 13.4545H291.509V9.45454H284.529V13.4545ZM289.509 11.4545V16.5455H293.509V11.4545H289.509ZM291.509 18.5455H291.827V14.5455H291.509V18.5455ZM293.734 17.1477C294.175 15.7501 294.891 14.7756 295.844 14.1027L293.537 10.8348C291.786 12.071 290.592 13.8143 289.92 15.9432L293.734 17.1477ZM295.847 14.1005C296.858 13.3836 298.008 13.017 299.364 13.017V9.01704C297.22 9.01704 295.254 9.61827 293.534 10.837L295.847 14.1005ZM299.364 13.017C299.697 13.017 300.086 13.0338 300.535 13.0702L300.858 9.08324C300.326 9.04009 299.826 9.01704 299.364 9.01704V13.017ZM300.591 13.0739C301.04 13.0976 301.354 13.1365 301.557 13.1771L302.341 9.25475C301.881 9.16274 301.359 9.10885 300.801 9.07947L300.591 13.0739ZM299.949 11.2159V17.8381H303.949V11.2159H299.949ZM302.606 15.9491C302.087 15.7684 301.424 15.6565 300.736 15.5739L300.259 19.5454C300.897 19.6219 301.201 19.6956 301.292 19.7271L302.606 15.9491ZM300.78 15.5798C300.044 15.4746 299.319 15.4205 298.608 15.4205V19.4205C299.116 19.4205 299.652 19.4591 300.214 19.5396L300.78 15.5798ZM298.608 15.4205C296.996 15.4205 295.482 15.7735 294.112 16.5189L296.024 20.0322C296.75 19.6375 297.595 19.4205 298.608 19.4205V15.4205ZM294.12 16.5146C292.774 17.2397 291.691 18.2663 290.907 19.5733L294.337 21.6313C294.746 20.9496 295.295 20.4251 296.017 20.0365L294.12 16.5146ZM290.907 19.5733C290.102 20.9147 289.727 22.4257 289.727 24.0426H293.727C293.727 23.0611 293.949 22.2785 294.337 21.6313L290.907 19.5733ZM289.727 24.0426V42H293.727V24.0426H289.727ZM291.727 40H284.529V44H291.727V40ZM332.655 11.4545H334.655V9.45454H332.655V11.4545ZM332.655 17.0227V19.0227H334.655V17.0227H332.655ZM315.095 17.0227H313.095V19.0227H315.095V17.0227ZM315.095 11.4545V9.45454H313.095V11.4545H315.095ZM319.431 4.13636V2.13636H317.431V4.13636H319.431ZM326.63 4.13636H328.63V2.13636H326.63V4.13636ZM327.067 35.0398L325.325 36.0224L325.34 36.0491L325.356 36.0754L327.067 35.0398ZM328.26 36.0739L327.552 37.9444L327.552 37.9444L328.26 36.0739ZM331.124 36.2528L330.784 34.2819L330.772 34.284L331.124 36.2528ZM331.999 36.0739L333.954 35.6524L333.512 33.6006L331.484 34.1414L331.999 36.0739ZM333.212 41.7017L333.864 43.5925L335.541 43.0142L335.167 41.2803L333.212 41.7017ZM331.561 42.1392L331.128 40.1868L331.12 40.1886L331.561 42.1392ZM328.976 42.4176L328.924 40.4183L328.917 40.4185L328.976 42.4176ZM324.104 41.6023L323.326 43.4449L323.334 43.4479L323.341 43.4509L324.104 41.6023ZM320.664 38.7784L318.992 39.8757L318.996 39.8818L319 39.8878L320.664 38.7784ZM319.431 34.0057L321.431 34.0196V34.0057H319.431ZM330.655 11.4545V17.0227H334.655V11.4545H330.655ZM332.655 15.0227H315.095V19.0227H332.655V15.0227ZM317.095 17.0227V11.4545H313.095V17.0227H317.095ZM315.095 13.4545H332.655V9.45454H315.095V13.4545ZM319.431 6.13636H326.63V2.13636H319.431V6.13636ZM324.63 4.13636V32.8125H328.63V4.13636H324.63ZM324.63 32.8125C324.63 33.9307 324.789 35.0727 325.325 36.0224L328.809 34.0571C328.761 33.9727 328.63 33.6299 328.63 32.8125H324.63ZM325.356 36.0754C325.863 36.9123 326.592 37.5812 327.552 37.9444L328.968 34.2033C328.947 34.1953 328.881 34.1749 328.778 34.0042L325.356 36.0754ZM327.552 37.9444C328.298 38.2265 329.085 38.3523 329.891 38.3523V34.3523C329.503 34.3523 329.204 34.2924 328.968 34.2033L327.552 37.9444ZM329.891 38.3523C330.438 38.3523 330.968 38.3123 331.475 38.2217L330.772 34.284C330.537 34.326 330.246 34.3523 329.891 34.3523V38.3523ZM331.464 38.2238C331.865 38.1546 332.227 38.0829 332.514 38.0063L331.484 34.1414C331.373 34.1709 331.152 34.2185 330.784 34.2819L331.464 38.2238ZM330.044 36.4953L331.257 42.1231L335.167 41.2803L333.954 35.6524L330.044 36.4953ZM332.56 39.811C332.282 39.9068 331.818 40.0334 331.128 40.1868L331.995 44.0916C332.736 43.9269 333.373 43.7618 333.864 43.5925L332.56 39.811ZM331.12 40.1886C330.586 40.3095 329.863 40.3939 328.924 40.4183L329.028 44.4169C330.131 44.3883 331.132 44.2871 332.003 44.0898L331.12 40.1886ZM328.917 40.4185C327.353 40.4645 326.015 40.2274 324.867 39.7536L323.341 43.4509C325.083 44.1703 326.993 44.4768 329.035 44.4167L328.917 40.4185ZM324.882 39.7596C323.788 39.298 322.953 38.6071 322.328 37.669L319 39.8878C320.071 41.4952 321.53 42.6868 323.326 43.4449L324.882 39.7596ZM322.336 37.6811C321.766 36.8132 321.419 35.6344 321.431 34.0196L317.431 33.9918C317.415 36.1952 317.891 38.1981 318.992 39.8757L322.336 37.6811ZM321.431 34.0057V4.13636H317.431V34.0057H321.431ZM342.306 40.6278L341.277 42.3428L341.277 42.3428L342.306 40.6278ZM337.215 35.1193L335.43 36.0218L335.434 36.0297L337.215 35.1193ZM337.215 18.554L335.432 17.6476L335.428 17.6556L337.215 18.554ZM342.306 13.0256L343.335 14.7406L343.335 14.7406L342.306 13.0256ZM357.817 13.0256L356.788 14.7406L356.788 14.7406L357.817 13.0256ZM362.888 18.554L361.101 19.4524L361.105 19.4603L362.888 18.554ZM362.888 35.1193L361.107 34.2089L361.103 34.2169L362.888 35.1193ZM357.817 40.6278L356.788 38.9129L356.788 38.9129L357.817 40.6278ZM354.158 35.4972L355.424 37.0459L355.429 37.0413L355.435 37.0367L354.158 35.4972ZM356.584 31.8778L354.702 31.201L354.7 31.2083L354.697 31.2157L356.584 31.8778ZM356.584 21.7557L354.695 22.4127L354.699 22.4226L354.702 22.4325L356.584 21.7557ZM354.158 18.1165L355.435 16.577L355.435 16.577L354.158 18.1165ZM345.965 18.1165L344.697 16.5694L344.688 16.577L345.965 18.1165ZM343.519 21.7557L341.635 21.084L341.632 21.0935L343.519 21.7557ZM343.519 31.8778L341.632 32.54L341.634 32.5474L341.637 32.5547L343.519 31.8778ZM345.965 35.4972L344.688 37.0367L344.698 37.0451L344.709 37.0534L345.965 35.4972ZM350.061 40.5966C347.379 40.5966 345.162 40.0093 343.335 38.9129L341.277 42.3428C343.824 43.8714 346.778 44.5966 350.061 44.5966V40.5966ZM343.335 38.9129C341.481 37.8007 340.039 36.2491 338.996 34.2089L335.434 36.0297C336.804 38.7092 338.755 40.83 341.277 42.3428L343.335 38.9129ZM339 34.2169C337.973 32.1859 337.425 29.7485 337.425 26.8466H333.425C333.425 30.2553 334.071 33.333 335.43 36.0218L339 34.2169ZM337.425 26.8466C337.425 23.9451 337.973 21.499 339.002 19.4524L335.428 17.6556C334.071 20.3552 333.425 23.4375 333.425 26.8466H337.425ZM338.998 19.4603C340.042 17.4069 341.484 15.851 343.335 14.7406L341.277 11.3106C338.753 12.8251 336.801 14.9548 335.432 17.6476L338.998 19.4603ZM343.335 14.7406C345.162 13.6441 347.379 13.0568 350.061 13.0568V9.05682C346.778 9.05682 343.824 9.78202 341.277 11.3106L343.335 14.7406ZM350.061 13.0568C352.744 13.0568 354.961 13.6441 356.788 14.7406L358.846 11.3106C356.299 9.78202 353.345 9.05682 350.061 9.05682V13.0568ZM356.788 14.7406C358.637 15.8499 360.071 17.4031 361.101 19.4524L364.675 17.6556C363.319 14.9586 361.372 12.8263 358.846 11.3106L356.788 14.7406ZM361.105 19.4603C362.145 21.5051 362.698 23.9483 362.698 26.8466H366.698C366.698 23.4343 366.044 20.3491 364.671 17.6476L361.105 19.4603ZM362.698 26.8466C362.698 29.7453 362.145 32.1798 361.107 34.2089L364.669 36.0297C366.045 33.3391 366.698 30.2585 366.698 26.8466H362.698ZM361.103 34.2169C360.074 36.253 358.64 37.8018 356.788 38.9129L358.846 42.3428C361.369 40.8289 363.316 38.7054 364.673 36.0218L361.103 34.2169ZM356.788 38.9129C354.961 40.0093 352.744 40.5966 350.061 40.5966V44.5966C353.345 44.5966 356.299 43.8714 358.846 42.3428L356.788 38.9129ZM350.101 38.8295C352.106 38.8295 353.926 38.2695 355.424 37.0459L352.893 33.9484C352.216 34.5013 351.331 34.8295 350.101 34.8295V38.8295ZM355.435 37.0367C356.837 35.8737 357.837 34.3469 358.471 32.54L354.697 31.2157C354.27 32.4315 353.653 33.3176 352.881 33.9576L355.435 37.0367ZM358.466 32.5547C359.099 30.7953 359.4 28.8782 359.4 26.8267H355.4C355.4 28.4873 355.157 29.9376 354.702 31.201L358.466 32.5547ZM359.4 26.8267C359.4 24.7637 359.099 22.8397 358.466 21.0788L354.702 22.4325C355.156 23.6944 355.4 25.151 355.4 26.8267H359.4ZM358.473 21.0986C357.841 19.2798 356.841 17.7431 355.435 16.577L352.881 19.656C353.649 20.2929 354.267 21.1823 354.695 22.4127L358.473 21.0986ZM355.435 16.577C353.937 15.3352 352.113 14.7642 350.101 14.7642V18.7642C351.324 18.7642 352.205 19.0948 352.881 19.656L355.435 16.577ZM350.101 14.7642C348.062 14.7642 346.213 15.328 344.697 16.5694L347.232 19.6636C347.918 19.1019 348.826 18.7642 350.101 18.7642V14.7642ZM344.688 16.577C343.286 17.7398 342.281 19.2712 341.635 21.084L345.403 22.4273C345.844 21.191 346.47 20.2962 347.242 19.656L344.688 16.577ZM341.632 21.0935C341.015 22.8499 340.723 24.7688 340.723 26.8267H344.723C344.723 25.146 344.962 23.6842 345.406 22.4179L341.632 21.0935ZM340.723 26.8267C340.723 28.8731 341.016 30.7851 341.632 32.54L345.406 31.2157C344.961 29.9479 344.723 28.4924 344.723 26.8267H340.723ZM341.637 32.5547C342.285 34.3555 343.29 35.8769 344.688 37.0367L347.242 33.9576C346.466 33.3143 345.84 32.4229 345.401 31.201L341.637 32.5547ZM344.709 37.0534C346.224 38.2765 348.069 38.8295 350.101 38.8295V34.8295C348.819 34.8295 347.907 34.4944 347.221 33.9409L344.709 37.0534ZM374.766 40.6278L373.737 42.3428L373.737 42.3428L374.766 40.6278ZM369.675 35.1193L367.89 36.0218L367.894 36.0297L369.675 35.1193ZM369.675 18.554L367.892 17.6476L367.888 17.6556L369.675 18.554ZM374.766 13.0256L375.795 14.7406L375.795 14.7406L374.766 13.0256ZM390.277 13.0256L389.248 14.7406L389.248 14.7406L390.277 13.0256ZM395.348 18.554L393.562 19.4524L393.566 19.4603L395.348 18.554ZM395.348 35.1193L393.568 34.2089L393.564 34.2169L395.348 35.1193ZM390.277 40.6278L389.248 38.9129L389.248 38.9129L390.277 40.6278ZM386.618 35.4972L387.884 37.0459L387.889 37.0413L387.895 37.0367L386.618 35.4972ZM389.045 31.8778L387.163 31.201L387.16 31.2083L387.157 31.2157L389.045 31.8778ZM389.045 21.7557L387.156 22.4127L387.159 22.4226L387.163 22.4325L389.045 21.7557ZM386.618 18.1165L387.895 16.577L387.895 16.577L386.618 18.1165ZM378.425 18.1165L377.158 16.5694L377.149 16.577L378.425 18.1165ZM375.979 21.7557L374.095 21.084L374.092 21.0935L375.979 21.7557ZM375.979 31.8778L374.092 32.54L374.095 32.5474L374.097 32.5547L375.979 31.8778ZM378.425 35.4972L377.149 37.0367L377.159 37.0451L377.169 37.0534L378.425 35.4972ZM382.522 40.5966C379.839 40.5966 377.622 40.0093 375.795 38.9129L373.737 42.3428C376.285 43.8714 379.238 44.5966 382.522 44.5966V40.5966ZM375.795 38.9129C373.941 37.8007 372.499 36.2491 371.456 34.2089L367.894 36.0297C369.264 38.7092 371.216 40.83 373.737 42.3428L375.795 38.9129ZM371.46 34.2169C370.433 32.1859 369.885 29.7485 369.885 26.8466H365.885C365.885 30.2553 366.531 33.333 367.89 36.0218L371.46 34.2169ZM369.885 26.8466C369.885 23.9451 370.433 21.499 371.462 19.4524L367.888 17.6556C366.531 20.3552 365.885 23.4375 365.885 26.8466H369.885ZM371.458 19.4603C372.502 17.4069 373.944 15.851 375.795 14.7406L373.737 11.3106C371.213 12.8251 369.261 14.9548 367.892 17.6476L371.458 19.4603ZM375.795 14.7406C377.622 13.6441 379.839 13.0568 382.522 13.0568V9.05682C379.238 9.05682 376.285 9.78202 373.737 11.3106L375.795 14.7406ZM382.522 13.0568C385.204 13.0568 387.421 13.6441 389.248 14.7406L391.306 11.3106C388.759 9.78202 385.805 9.05682 382.522 9.05682V13.0568ZM389.248 14.7406C391.097 15.8499 392.531 17.4031 393.562 19.4524L397.135 17.6556C395.779 14.9586 393.833 12.8263 391.306 11.3106L389.248 14.7406ZM393.566 19.4603C394.605 21.5051 395.158 23.9483 395.158 26.8466H399.158C399.158 23.4343 398.505 20.3491 397.131 17.6476L393.566 19.4603ZM395.158 26.8466C395.158 29.7453 394.605 32.1798 393.568 34.2089L397.129 36.0297C398.505 33.3391 399.158 30.2585 399.158 26.8466H395.158ZM393.564 34.2169C392.534 36.253 391.1 37.8018 389.248 38.9129L391.306 42.3428C393.83 40.8289 395.776 38.7054 397.133 36.0218L393.564 34.2169ZM389.248 38.9129C387.421 40.0093 385.204 40.5966 382.522 40.5966V44.5966C385.805 44.5966 388.759 43.8714 391.306 42.3428L389.248 38.9129ZM382.562 38.8295C384.566 38.8295 386.386 38.2695 387.884 37.0459L385.353 33.9484C384.676 34.5013 383.792 34.8295 382.562 34.8295V38.8295ZM387.895 37.0367C389.297 35.8737 390.298 34.3469 390.932 32.54L387.157 31.2157C386.731 32.4315 386.114 33.3176 385.342 33.9576L387.895 37.0367ZM390.926 32.5547C391.559 30.7953 391.86 28.8782 391.86 26.8267H387.86C387.86 28.4873 387.617 29.9376 387.163 31.201L390.926 32.5547ZM391.86 26.8267C391.86 24.7637 391.56 22.8397 390.926 21.0788L387.163 22.4325C387.616 23.6944 387.86 25.151 387.86 26.8267H391.86ZM390.934 21.0986C390.301 19.2798 389.301 17.7431 387.895 16.577L385.342 19.656C386.11 20.2929 386.728 21.1823 387.156 22.4127L390.934 21.0986ZM387.895 16.577C386.398 15.3352 384.574 14.7642 382.562 14.7642V18.7642C383.784 18.7642 384.665 19.0948 385.342 19.656L387.895 16.577ZM382.562 14.7642C380.522 14.7642 378.673 15.328 377.158 16.5694L379.693 19.6636C380.378 19.1019 381.286 18.7642 382.562 18.7642V14.7642ZM377.149 16.577C375.746 17.7398 374.742 19.2712 374.095 21.084L377.863 22.4273C378.304 21.191 378.93 20.2962 379.702 19.656L377.149 16.577ZM374.092 21.0935C373.476 22.8499 373.184 24.7688 373.184 26.8267H377.184C377.184 25.146 377.422 23.6842 377.866 22.4179L374.092 21.0935ZM373.184 26.8267C373.184 28.8731 373.476 30.7851 374.092 32.54L377.866 31.2157C377.422 29.9479 377.184 28.4924 377.184 26.8267H373.184ZM374.097 32.5547C374.745 34.3555 375.75 35.8769 377.149 37.0367L379.702 33.9576C378.926 33.3143 378.301 32.4229 377.861 31.201L374.097 32.5547ZM377.169 37.0534C378.684 38.2765 380.529 38.8295 382.562 38.8295V34.8295C381.279 34.8295 380.367 34.4944 379.681 33.9409L377.169 37.0534ZM408.857 1.27273H410.857V-0.727274H408.857V1.27273ZM408.857 42V44H410.857V42H408.857ZM401.658 42H399.658V44H401.658V42ZM401.658 1.27273V-0.727274H399.658V1.27273H401.658ZM406.857 1.27273V42H410.857V1.27273H406.857ZM408.857 40H401.658V44H408.857V40ZM403.658 42V1.27273H399.658V42H403.658ZM401.658 3.27273H408.857V-0.727274H401.658V3.27273ZM438.792 19.5284L439.009 21.5166L441.158 21.2821L440.757 19.1574L438.792 19.5284ZM432.229 20.2443L430.303 20.7836L430.761 22.4164L432.446 22.2325L432.229 20.2443ZM431.255 18.375L429.672 19.5979L429.681 19.609L429.69 19.62L431.255 18.375ZM429.425 16.9631L430.269 15.1499L430.269 15.1499L429.425 16.9631ZM422.823 17.4006L421.749 15.7132L421.739 15.7196L422.823 17.4006ZM421.332 19.9261L423.331 19.956L423.332 19.9282L423.331 19.9005L421.332 19.9261ZM422.306 22.0938L421.02 23.6252L421.027 23.6314L421.035 23.6376L422.306 22.0938ZM425.647 23.4659L425.197 25.4147L425.213 25.4183L425.229 25.4217L425.647 23.4659ZM430.857 24.5795L431.279 22.6245L431.275 22.6237L430.857 24.5795ZM437.3 27.5426L435.914 28.9838L435.92 28.9902L437.3 27.5426ZM439.448 32.8523L441.448 32.8661L441.448 32.8531L441.448 32.8402L439.448 32.8523ZM437.758 37.9432L436.163 36.7363L436.161 36.7385L437.758 37.9432ZM433.164 41.3636L433.937 43.2083L433.164 41.3636ZM417.374 40.25L416.236 41.8947L416.243 41.8992L417.374 40.25ZM413.298 33.6676L413.106 31.6768L410.995 31.8801L411.321 33.9752L413.298 33.6676ZM420.317 32.9915L422.266 32.5418L421.872 30.8325L420.126 31.0007L420.317 32.9915ZM422.346 36.1136L423.47 34.4594L423.47 34.4594L422.346 36.1136ZM430.499 36.1136L429.385 34.4527L429.375 34.4594L430.499 36.1136ZM431.056 31.3409L429.752 32.8573L429.759 32.8637L429.767 32.87L431.056 31.3409ZM427.954 30.0284L428.378 28.0738L428.365 28.0711L427.954 30.0284ZM422.744 28.9347L423.154 26.9773L423.151 26.9766L422.744 28.9347ZM416.241 25.8523L414.801 27.2401L414.807 27.2466L416.241 25.8523ZM414.153 20.3239L416.153 20.3358L416.153 20.3228L416.153 20.3098L414.153 20.3239ZM415.684 15.4318L414.086 14.2294L414.084 14.2318L415.684 15.4318ZM420.039 12.2102L420.793 14.0626L420.8 14.0599L420.039 12.2102ZM434.954 13.3438L433.762 14.95L433.767 14.9536L434.954 13.3438ZM438.575 17.5402L432.012 18.2561L432.446 22.2325L439.009 21.5166L438.575 17.5402ZM434.155 19.7051C433.892 18.7646 433.436 17.9047 432.82 17.13L429.69 19.62C430.001 20.012 430.196 20.3983 430.303 20.7836L434.155 19.7051ZM432.837 17.1521C432.164 16.2801 431.284 15.6224 430.269 15.1499L428.581 18.7762C429.104 19.0197 429.445 19.3032 429.672 19.5979L432.837 17.1521ZM430.269 15.1499C429.167 14.6367 427.919 14.4261 426.601 14.4261V18.4261C427.511 18.4261 428.146 18.5735 428.581 18.7762L430.269 15.1499ZM426.601 14.4261C424.814 14.4261 423.16 14.8157 421.749 15.7132L423.897 19.0879C424.528 18.6862 425.393 18.4261 426.601 18.4261V14.4261ZM421.739 15.7196C420.261 16.6726 419.308 18.1094 419.332 19.9518L423.331 19.9005C423.329 19.6747 423.37 19.4277 423.907 19.0815L421.739 15.7196ZM419.332 19.8963C419.31 21.3675 419.883 22.67 421.02 23.6252L423.592 20.5623C423.404 20.4038 423.327 20.2613 423.331 19.956L419.332 19.8963ZM421.035 23.6376C422.073 24.4926 423.553 25.0352 425.197 25.4147L426.097 21.5171C424.639 21.1807 423.892 20.8086 423.577 20.5499L421.035 23.6376ZM425.229 25.4217L430.439 26.5354L431.275 22.6237L426.065 21.5101L425.229 25.4217ZM430.436 26.5346C433.136 27.1169 434.88 27.9895 435.914 28.9838L438.687 26.1015C436.91 24.3911 434.358 23.2884 431.279 22.6245L430.436 26.5346ZM435.92 28.9902C436.898 29.9227 437.438 31.1503 437.448 32.8644L441.448 32.8402C441.432 30.1792 440.539 27.8671 438.68 26.095L435.92 28.9902ZM437.448 32.8385C437.438 34.3491 437.005 35.6234 436.163 36.7363L439.353 39.1501C440.738 37.3198 441.432 35.2001 441.448 32.8661L437.448 32.8385ZM436.161 36.7385C435.307 37.8709 434.081 38.811 432.391 39.519L433.937 43.2083C436.171 42.2724 438.008 40.9321 439.354 39.1478L436.161 36.7385ZM432.391 39.519C430.717 40.2204 428.734 40.5966 426.403 40.5966V44.5966C429.162 44.5966 431.687 44.1509 433.937 43.2083L432.391 39.519ZM426.403 40.5966C422.929 40.5966 420.354 39.869 418.506 38.6008L416.243 41.8992C418.955 43.7598 422.399 44.5966 426.403 44.5966V40.5966ZM418.512 38.6053C416.696 37.3486 415.629 35.6446 415.274 33.36L411.321 33.9752C411.841 37.3118 413.492 39.9961 416.236 41.8947L418.512 38.6053ZM413.489 35.6584L420.509 34.9823L420.126 31.0007L413.106 31.6768L413.489 35.6584ZM418.369 33.4412C418.784 35.2414 419.715 36.7442 421.222 37.7679L423.47 34.4594C422.908 34.0778 422.487 33.4992 422.266 32.5418L418.369 33.4412ZM421.222 37.7679C422.68 38.7586 424.453 39.1676 426.383 39.1676V35.1676C424.998 35.1676 424.08 34.874 423.47 34.4594L421.222 37.7679ZM426.383 39.1676C428.35 39.1676 430.156 38.7649 431.623 37.7679L429.375 34.4594C428.774 34.8677 427.836 35.1676 426.383 35.1676V39.1676ZM431.613 37.7745C433.076 36.7936 434.07 35.3606 434.07 33.5085H430.07C430.07 33.7246 430.018 34.0284 429.385 34.4528L431.613 37.7745ZM434.07 33.5085C434.07 32.0367 433.466 30.7572 432.345 29.8119L429.767 32.87C429.998 33.0647 430.07 33.2303 430.07 33.5085H434.07ZM432.36 29.8245C431.332 28.9403 429.922 28.409 428.378 28.0739L427.53 31.9829C428.796 32.2577 429.454 32.6014 429.752 32.8573L432.36 29.8245ZM428.365 28.0711L423.154 26.9773L422.333 30.892L427.543 31.9857L428.365 28.0711ZM423.151 26.9766C420.433 26.4109 418.697 25.5094 417.675 24.4579L414.807 27.2466C416.595 29.0853 419.194 30.2387 422.336 30.8927L423.151 26.9766ZM417.681 24.4645C416.675 23.421 416.142 22.0983 416.153 20.3358L412.153 20.312C412.137 23.004 412.996 25.3669 414.801 27.2401L417.681 24.4645ZM416.153 20.3098C416.142 18.822 416.537 17.6278 417.284 16.6318L414.084 14.2318C412.763 15.9934 412.137 18.0606 412.153 20.3379L416.153 20.3098ZM417.282 16.6343C418.081 15.5724 419.221 14.7028 420.793 14.0626L419.285 10.3579C417.145 11.2291 415.381 12.5072 414.086 14.2294L417.282 16.6343ZM420.8 14.0599C422.383 13.4085 424.271 13.0568 426.502 13.0568V9.05682C423.854 9.05682 421.433 9.47412 419.278 10.3606L420.8 14.0599ZM426.502 13.0568C429.819 13.0568 432.165 13.7653 433.762 14.9499L436.145 11.7376C433.632 9.873 430.344 9.05682 426.502 9.05682V13.0568ZM433.767 14.9536C435.416 16.1689 436.427 17.7814 436.827 19.8994L440.757 19.1574C440.176 16.0785 438.628 13.5679 436.141 11.7339L433.767 14.9536Z" fill="#E44D80" mask="url(#path-1-outside-1_3_1203)"/>
</g>
<defs>
<filter id="filter0_d_3_1203" x="0.727272" y="0.71582" width="442.721" height="55.7388" filterUnits="userSpaceOnUse" color-interpolation-filters="sRGB">
<feFlood flood-opacity="0" result="BackgroundImageFix"/>
<feColorMatrix in="SourceAlpha" type="matrix" values="0 0 0 0 0 0 0 0 0 0 0 0 0 0 0 0 0 0 127 0" result="hardAlpha"/>
<feOffset dx="4" dy="3"/>
<feComposite in2="hardAlpha" operator="out"/>
<feColorMatrix type="matrix" values="0 0 0 0 0.894118 0 0 0 0 0.301961 0 0 0 0 0.501961 0 0 0 1 0"/>
<feBlend mode="normal" in2="BackgroundImageFix" result="effect1_dropShadow_3_1203"/>
<feBlend mode="normal" in="SourceGraphic" in2="effect1_dropShadow_3_1203" result="shape"/>
</filter>
</defs>
</svg>
