<svg width="14" height="13" viewBox="0 0 14 13" fill="none" xmlns="http://www.w3.org/2000/svg">
<path d="M7.15032 11.391C9.76973 11.391 11.8932 9.26753 11.8932 6.64812C11.8932 4.02872 9.76973 1.90527 7.15032 1.90527C4.53092 1.90527 2.40747 4.02872 2.40747 6.64812C2.40747 9.26753 4.53092 11.391 7.15032 11.391Z" stroke="#707070" stroke-width="1.26476" stroke-miterlimit="10"/>
<path d="M11.4073 8.74144L8.72528 7.09189C8.67827 7.06298 8.62572 7.04423 8.57102 7.03686L7.44367 6.88489C7.35902 6.87348 7.27294 6.8898 7.19834 6.93141C7.12374 6.97302 7.06463 7.03768 7.02986 7.1157L6.35308 8.63432C6.3216 8.70494 6.31153 8.78324 6.32412 8.85953C6.3367 8.93582 6.37138 9.00674 6.42387 9.06351L7.35268 10.0681C7.39478 10.1137 7.42558 10.1685 7.44258 10.2281C7.45957 10.2878 7.46229 10.3506 7.45051 10.4115L7.26132 11.3895C8.21785 11.3364 10.3862 10.7324 11.4073 8.74144Z" fill="#707070" stroke="#707070" stroke-width="0.843173" stroke-linecap="round" stroke-linejoin="round"/>
<path d="M8.35879 2.0606L8.81992 2.88657C8.86351 2.96465 8.87934 3.05521 8.86481 3.14345C8.85028 3.23169 8.80625 3.31239 8.73993 3.37237L7.41041 4.57476C7.38784 4.59517 7.363 4.6129 7.33636 4.62761L6.73156 4.9616C6.67306 4.99391 6.60733 5.01085 6.5405 5.01085H5.48593C5.40817 5.01085 5.33213 5.0338 5.26734 5.07681C5.20255 5.11982 5.15188 5.18099 5.12169 5.25266L4.71029 6.22931" fill="#707070"/>
<path d="M4.0356 3.07128L3.59371 4.11617C3.55431 4.20934 3.55213 4.31407 3.58763 4.40879L4.15533 5.92395C4.17858 5.98599 4.21705 6.0412 4.26721 6.08449C4.31737 6.12778 4.37761 6.15776 4.44239 6.17169L5.50113 6.39924C5.55988 6.41187 5.61497 6.43772 5.66222 6.47484C5.70948 6.51196 5.74765 6.55936 5.77383 6.61345L5.96184 7.00187C5.9942 7.06871 6.04473 7.12509 6.10765 7.16453C6.17057 7.20398 6.24333 7.2249 6.31759 7.2249H6.98123" fill="#707070"/>
<path d="M8.35879 2.0606L8.81992 2.88657C8.86351 2.96465 8.87934 3.05521 8.86481 3.14345C8.85028 3.23169 8.80625 3.31239 8.73993 3.37237L7.41041 4.57476C7.38784 4.59517 7.363 4.6129 7.33636 4.62761L6.73156 4.9616C6.67306 4.99391 6.60733 5.01085 6.5405 5.01085H5.48593C5.40817 5.01085 5.33213 5.0338 5.26734 5.07681C5.20255 5.11982 5.15188 5.18099 5.12169 5.25266L4.71029 6.22931L4.44239 6.17169C4.37761 6.15776 4.31737 6.12778 4.26721 6.08449C4.21705 6.0412 4.17858 5.98599 4.15533 5.92395L3.58763 4.40879C3.55213 4.31407 3.55431 4.20934 3.59371 4.11617L4.0356 3.07128C4.56198 2.52274 6.16355 1.55266 8.35879 2.0606Z" fill="#707070"/>
<path d="M4.44239 6.17169C4.37761 6.15776 4.31737 6.12778 4.26721 6.08449C4.21705 6.0412 4.17858 5.98599 4.15533 5.92395L3.58763 4.40879C3.55213 4.31407 3.55431 4.20934 3.59371 4.11617L4.0356 3.07128C4.56198 2.52274 6.16355 1.55266 8.35879 2.0606L8.81992 2.88657C8.86351 2.96465 8.87934 3.05521 8.86481 3.14345C8.85028 3.23169 8.80625 3.31239 8.73993 3.37237L7.41041 4.57476C7.38784 4.59517 7.363 4.6129 7.33636 4.62761L6.73156 4.9616C6.67306 4.99391 6.60733 5.01085 6.5405 5.01085H5.48593C5.40817 5.01085 5.33213 5.0338 5.26734 5.07681C5.20255 5.11982 5.15188 5.18099 5.12169 5.25266L4.71029 6.22931L4.44239 6.17169ZM4.44239 6.17169L5.50113 6.39924C5.55988 6.41187 5.61497 6.43772 5.66222 6.47484C5.70948 6.51196 5.74765 6.55936 5.77383 6.61345L5.96184 7.00187C5.9942 7.06871 6.04473 7.12509 6.10765 7.16453C6.17057 7.20398 6.24333 7.2249 6.31759 7.2249H6.98123" stroke="#707070" stroke-width="0.843173" stroke-linecap="round" stroke-linejoin="round"/>
</svg>
